<svg width="48" height="48" viewBox="0 0 48 48" fill="none" xmlns="http://www.w3.org/2000/svg">
<g clip-path="url(#clip0_414_1911)">
<rect width="48" height="48" rx="24" fill="#04294A"/>
<path fill-rule="evenodd" clip-rule="evenodd" d="M30.4317 44.9944C30.9373 45.3342 31.5037 45.5 32.0701 45.5H32.0728C33.0343 45.4972 34.0012 45.0248 34.6974 44.1297C35.3881 43.2428 35.9793 42.3145 36.5125 41.4415C38.4216 38.3058 40.1677 35.1784 40.5655 31.4348C40.8224 29.0755 40.2699 27.0697 38.9244 25.4728C38.7642 25.285 38.5984 25.1026 38.4244 24.9313L38.4409 24.9424C39.756 25.6718 41.0849 26.5199 41.6043 28.1223C41.6678 28.3047 41.817 28.3848 41.8806 28.4152L42.1845 28.6555L42.4442 28.3682C43.9333 26.7188 44.4361 22.8841 42.8807 20.2181C41.5932 18.0079 38.7587 16.6984 37.0817 17.005L35.5649 17.2813C34.8383 16.9581 34.0565 16.6901 33.1973 16.4635L35.5262 16.1845C38.7946 15.7922 41.3722 13.361 42.0933 9.98766C42.574 7.75537 41.5988 3.65822 39.9439 2.53102L39.4825 2.21606L39.314 2.74927C39.2974 2.80177 39.2781 2.85426 39.2587 2.90675L39.2513 2.92666C39.2061 3.04878 39.1553 3.18581 39.1344 3.33774C38.9907 4.40139 38.4492 5.28547 37.485 6.03694C37.1929 6.26487 36.896 6.48814 36.5992 6.71142C36.5003 6.78583 36.4013 6.86024 36.3026 6.93483L36.228 6.99009C36.1109 7.07884 35.9933 7.16741 35.8758 7.25603C35.5468 7.50396 35.2172 7.75237 34.8936 8.00678C32.6392 9.75836 31.9623 11.8636 32.874 14.2561C32.863 14.2948 32.8381 14.35 32.816 14.3804C31.3738 15.1844 29.7687 15.7784 28.0503 16.1458C25.5527 16.6735 23.1768 16.4801 20.9914 15.5712C20.2617 15.2707 19.5268 14.9363 18.8119 14.6111L18.7481 14.5821C17.9441 14.2147 17.1153 13.8389 16.2727 13.4963C13.9575 12.5653 11.8827 12.3857 9.9239 12.9466C7.43743 13.6566 5.77978 15.4026 4.99792 18.1322C4.26027 20.7209 4.67468 23.2157 5.11672 25.1026C6.08645 29.2633 7.55899 33.3964 9.49291 37.383C10.4875 39.4302 11.6092 41.5686 13.3911 43.2649C15.256 45.0441 17.5297 45.1906 19.4802 43.66C20.2206 43.0771 21.1572 42.2869 21.8313 41.342C23.5942 38.8702 25.2893 36.3006 26.93 33.8135L26.9756 33.7445L27.0004 33.7058C27.2739 33.2942 27.7132 33.0455 28.1746 33.0455H28.1801C28.5945 33.0455 28.9564 33.2417 29.194 33.5953C29.4593 33.9931 29.5974 34.3109 29.6167 34.5706C29.6996 35.6618 29.7687 36.8333 29.7051 38.0185C29.6659 38.7912 29.5794 39.5764 29.4951 40.341C29.4905 40.3828 29.4859 40.4246 29.4814 40.4663L29.4787 40.4903C29.4049 41.1625 29.3288 41.8559 29.2797 42.5521C29.2106 43.5909 29.6084 44.4336 30.4317 44.9944ZM28.9509 30.6447C28.6442 30.5922 28.3486 30.5646 28.0641 30.5646L28.0585 30.5591C26.7186 30.5591 25.6329 31.1558 24.8869 32.3162L24.0774 33.5843C24.001 33.7039 23.9246 33.8235 23.8482 33.9431C23.0796 35.1464 22.3125 36.3473 21.5385 37.546C20.4223 39.2728 19.3697 40.7895 17.7977 41.8338C17.0794 42.3062 16.1649 42.3504 15.6179 41.9305C15.1151 41.5493 14.7283 41.1901 14.4382 40.8337C12.3302 38.2146 11.0014 35.0927 9.98191 32.3852C9.03429 29.8518 8.22205 27.3239 7.56451 24.8789C7.08103 23.0637 6.67767 20.9171 7.35731 18.7318C7.76067 17.4498 8.30493 16.6127 9.1227 16.0187C10.5676 14.9661 12.2667 14.7893 14.4686 15.4662C16.1345 15.9773 17.7729 16.7232 19.1763 17.3835C21.8672 18.6461 24.7819 18.9942 28.3597 18.4831C30.4704 18.1792 32.5894 18.3008 34.6449 18.8367C34.8604 18.8975 34.8963 18.9417 34.8963 18.9417C34.8963 18.9417 34.9267 18.9997 34.8825 19.2235C34.5676 20.8342 34.9433 22.2211 35.9738 23.2682C35.0151 22.8372 33.9128 22.536 32.6392 22.3482C30.0919 21.9697 27.5502 22.2321 25.4008 22.5388L25.3716 22.5429C23.0296 22.8732 20.6085 23.2146 18.2066 22.9532C16.3252 22.7543 14.4686 22.2846 13.6011 20.2402L13.5928 19.917H12.7032L12.7695 20.3894C12.7695 20.406 12.7723 20.4198 12.7778 20.4364V20.7541H12.8331C13.1314 22.0968 14.0183 23.0831 15.5323 23.7544C17.6237 24.691 19.8394 24.7269 21.928 24.6799C23.2044 24.6523 24.5029 24.6053 25.782 24.5584C27.1883 24.5059 28.6415 24.4534 30.0809 24.4258C31.6335 24.3926 33.1337 24.6855 34.5178 25.2905C37.0485 26.3956 38.1509 28.1057 38.0956 30.8381C38.0707 32.2001 37.7143 33.6423 36.9767 35.3773C36.0926 37.4604 34.8936 39.5601 33.0867 42.1902C32.8906 42.4831 32.5839 42.7676 32.2413 42.9721C32.106 43.055 31.9816 43.0798 31.9015 43.0384C31.8131 42.9942 31.7496 42.8616 31.733 42.6847C31.7081 42.3891 31.7164 42.0521 31.7634 41.657C31.8048 41.2619 31.8546 40.8669 31.9098 40.4718V40.4414C32.001 39.7314 32.0949 38.9992 32.1391 38.2644C32.1502 38.0737 32.1612 37.8859 32.175 37.6897C32.2717 36.2172 32.3684 34.6949 31.78 33.2113C31.2108 31.7608 30.2328 30.8712 28.9509 30.6447ZM37.2502 21.8205C36.7391 21.2983 36.5927 20.5331 36.8441 19.8893L36.8413 19.8866C38.2276 20.7233 39.2993 21.9079 40.4259 23.1533L40.4274 23.1549C40.5006 23.235 40.5731 23.3152 40.6457 23.3953C40.7182 23.4754 40.7907 23.5555 40.8639 23.6356L41.969 24.8402C41.9579 24.9728 41.9413 25.1054 41.922 25.2408C41.2202 24.4622 40.3443 23.9339 39.4806 23.413L39.4604 23.4008C39.3989 23.3633 39.337 23.3261 39.2749 23.2889C39.1586 23.219 39.0415 23.1486 38.9244 23.0748C38.3746 22.7405 37.7475 22.3316 37.2502 21.8205ZM36.0992 17.5347C36.7 17.8381 37.2596 18.18 37.7889 18.566C39.5792 19.8755 40.8086 21.3923 41.5518 23.1991L41.9994 24.2904C42.027 23.0582 41.7452 21.9338 41.1429 20.8839C40.2699 19.3699 38.9272 18.3615 37.0347 17.809L36.0992 17.5347ZM39.3609 9.80808L39.4105 8.64235L38.6343 9.52076C38.557 9.6064 38.4851 9.69205 38.4161 9.77493C38.2918 9.92412 38.1812 10.054 38.068 10.1617L37.6011 10.601L37.5369 10.6616C36.6784 11.4715 35.7939 12.306 34.8936 13.0958C34.819 13.1593 34.7637 13.1952 34.7278 13.2118C34.714 13.1759 34.6974 13.1206 34.6836 13.0322C34.5759 12.2006 34.5869 11.5403 34.7168 11.0237C34.9401 10.1772 35.6698 9.66646 36.4416 9.12616L36.4462 9.12292L36.5788 9.02899C37.8387 8.15044 39.1399 7.2415 40.0185 5.93748C40.2865 6.57567 40.4771 7.65591 40.3997 8.81902C40.1925 11.9133 38.5293 14.0599 35.3163 15.3861L33.7277 16.0408L33.7609 16.016L33.8644 15.9431C34.7573 15.3153 35.6045 14.7197 36.4158 14.0599C37.9133 12.8416 39.3167 10.8165 39.3609 9.80808Z" fill="white"/>
</g>
<defs>
<clipPath id="clip0_414_1911">
<rect width="48" height="48" fill="white"/>
</clipPath>
</defs>
</svg>
