<svg width="258" height="143" viewBox="0 0 258 143" fill="none" xmlns="http://www.w3.org/2000/svg">
<path d="M216.325 142.045C208.573 142.045 202.682 139.461 198.894 134.293C195.828 130.088 194.929 125.521 196.189 120.585C197.449 115.657 200.7 112.11 205.748 110.063C208.332 108.979 211.277 108.497 214.519 108.497H233.331V106.089C233.331 103.088 232.247 100.736 230.089 98.9944C227.922 97.2531 224.504 96.3454 219.993 96.3454C215.482 96.3454 212.176 97.1883 210.018 98.8741C207.915 100.439 206.896 102.421 206.896 105.006V106.21H198.542V105.006C198.542 100.134 200.524 96.1139 204.433 93.0481C208.276 89.9823 213.509 88.4818 219.937 88.4818C226.365 88.4818 231.839 90.1027 235.563 93.3538C239.407 96.5955 241.333 100.865 241.333 106.099V140.6H233.275V134.589C229.005 139.517 223.3 141.98 216.205 141.98L216.325 142.036V142.045ZM216.325 134.107C221.012 134.107 225.097 132.663 228.403 129.782C231.765 126.902 233.395 123.234 233.395 118.667V116.5H214.584C209.656 116.5 206.526 118 204.905 121.011C203.525 123.595 203.701 126.123 205.266 128.763C207.313 132.07 210.555 133.756 215.306 134.052H216.39L216.334 134.107H216.325ZM89.1459 142.045C81.8102 142.045 75.5026 139.396 70.2695 134.172C65.1012 128.939 62.517 122.576 62.517 115.24C62.517 107.905 65.166 101.532 70.2695 96.364C75.5026 91.1308 81.8102 88.4911 89.1459 88.4911C96.4815 88.4911 102.854 91.1401 108.022 96.364C113.255 101.532 115.895 107.84 115.895 115.24C115.895 122.641 115.895 115.361 115.654 118.186L115.534 119.269H71.0567C71.8996 123.298 73.9373 126.726 77.0031 129.55C80.4301 132.616 84.5148 134.182 89.1459 134.182C93.777 134.182 95.4535 133.339 98.2229 131.653C100.992 129.967 103.271 127.744 104.892 125.04L105.253 124.438H114.209L113.487 126.123C111.384 130.875 108.133 134.774 103.808 137.664C99.4824 140.545 94.555 142.054 89.2015 142.054H89.1459V142.045ZM107.355 111.211C106.513 107.247 104.475 103.82 101.344 101.051C97.9172 97.9849 93.8326 96.4196 89.2015 96.4196C84.5704 96.4196 80.4856 97.9849 77.0586 101.051C73.9928 103.811 71.946 107.238 71.1124 111.211H107.355ZM249.086 140.6V75.6259H257.144V140.6H249.086ZM188.02 140.6C184.472 140.6 181.472 139.461 179.128 137.173C176.72 134.886 175.525 131.82 175.525 128.041V97.9293H169.875V89.8712H175.525V78.9325H183.583V89.8712H193.624V97.9293H183.583V128.041C183.583 129.606 183.945 130.69 184.787 131.403C185.63 132.125 186.714 132.542 188.094 132.542H193.624V140.6H188.038H188.02ZM157.427 140.6V108.924C157.427 105.08 156.288 102.134 154 99.8466C151.712 97.5033 148.767 96.364 144.988 96.364C141.209 96.364 137.772 97.744 134.651 100.393C131.53 103.042 129.964 106.043 129.9 109.59V140.545H121.841V89.8156H129.9V95.5211C131.159 94.141 132.725 92.8166 134.651 91.6125C138.013 89.5099 141.626 88.4263 145.469 88.4263C151.657 88.4263 156.649 90.3528 160.131 94.1318C163.679 97.8552 165.485 102.783 165.485 108.859V140.535H157.427V140.591V140.6ZM3.61867 140.6V75.6259H26.1536C35.0453 75.6259 42.7978 78.8121 49.1146 85.1845C55.4222 91.4921 58.6732 99.2445 58.6732 108.145C58.6732 117.046 55.487 124.79 49.1146 131.107C42.8071 137.414 35.0546 140.665 26.1536 140.665H3.61867V140.61V140.6ZM26.1628 132.542C32.8316 132.542 38.6669 130.134 43.3536 125.392C48.0402 120.64 50.4483 114.814 50.4483 108.145C50.4483 101.477 48.0402 95.5859 43.3536 90.8993C38.6669 86.1478 32.8965 83.7489 26.1628 83.7489H11.6767V132.616H26.1628V132.561V132.542ZM180.147 66.4285C172.395 66.4285 166.504 63.8444 162.716 58.6761C159.65 54.471 158.751 49.9048 160.011 44.968C161.271 40.0405 164.522 36.493 169.57 34.4461C172.154 33.3624 175.099 32.8808 178.341 32.8808H197.152V30.4726C197.152 27.4068 196.069 25.1191 193.911 23.3778C191.743 21.6365 188.326 20.7288 183.815 20.7288C179.304 20.7288 175.998 21.5717 173.839 23.2574C171.737 24.8227 170.718 26.8048 170.718 29.389V30.593H162.364V29.389C162.364 24.517 164.346 20.4972 168.254 17.4314C172.098 14.3656 177.331 12.8652 183.759 12.8652C190.187 12.8652 195.661 14.4861 199.385 17.7371C203.228 20.9789 205.155 25.2488 205.155 30.4819V64.9836H197.097V58.9725C192.827 63.9 187.121 66.3637 180.027 66.3637L180.147 66.4193V66.4285ZM180.147 58.5556C184.834 58.5556 188.918 57.1108 192.225 54.2302C195.587 51.3497 197.217 47.6818 197.217 43.1156V40.9482H178.406C173.478 40.9482 170.348 42.4487 168.727 45.4589C167.347 48.043 167.523 50.5716 169.088 53.2113C171.135 56.5179 174.377 58.2037 179.128 58.5001H180.212L180.156 58.5556H180.147ZM126.713 66.4285C119.378 66.4285 113.126 63.7795 108.022 58.6112C102.91 53.3781 100.325 47.0149 100.325 39.5589C100.325 32.1028 102.91 25.8508 108.022 20.6825C113.135 15.4493 119.443 12.8096 126.713 12.8096C133.984 12.8096 135.725 13.9488 139.273 16.1718C141.801 17.7371 144.024 19.5988 145.942 21.8218V0H154V64.9743H145.942V57.3423C144.015 59.5652 141.792 61.4917 139.153 63.0478C135.605 65.2707 131.4 66.41 126.649 66.41H126.704L126.713 66.4285ZM127.251 20.8122C122.017 20.8122 117.692 22.6183 114.024 26.3973C110.356 30.0651 108.615 34.4554 108.615 39.6793C108.615 44.9032 110.356 49.3583 114.024 53.1465C117.692 56.8143 122.017 58.6205 127.251 58.6205C132.484 58.6205 136.744 56.8143 140.412 53.1465C144.136 49.4231 145.997 45.0328 145.997 39.7441C145.997 34.4554 144.191 30.1855 140.412 26.5176C136.689 22.7294 132.419 20.9326 127.251 20.9326V20.8122ZM69.195 66.4285C61.4426 66.4285 55.5518 63.8444 51.7636 58.6761C48.6978 54.471 47.7993 49.9048 49.059 44.968C50.3187 40.0405 53.5698 36.493 58.6177 34.4461C61.2018 33.3624 64.1472 32.8808 67.3889 32.8808H86.2004V30.4726C86.2004 27.4068 85.1167 25.1191 82.9587 23.3778C80.7913 21.6365 77.3736 20.7288 72.8629 20.7288C68.3522 20.7288 65.0456 21.5717 62.8875 23.2574C60.785 24.8227 59.7662 26.8048 59.7662 29.389V30.593H51.4116V29.389C51.4116 24.517 53.3937 20.4972 57.3024 17.4314C61.1462 14.3656 66.3793 12.8652 72.8073 12.8652C79.2353 12.8652 84.6444 14.4861 88.4326 17.7371C92.2765 20.9789 94.203 25.2488 94.203 30.4819V64.9836H86.1449V58.9725C81.875 63.9 76.1695 66.3637 69.0746 66.3637L69.195 66.4193V66.4285ZM69.195 58.5556C73.8817 58.5556 77.9664 57.1108 81.273 54.2302C84.6352 51.3497 86.2653 47.6818 86.2653 43.1156V40.9482H67.4537C62.5262 40.9482 59.3957 42.4487 57.7748 45.4589C56.3947 48.043 56.5707 50.5716 58.136 53.2113C60.183 56.5179 63.4247 58.2037 68.1762 58.5001H69.2599L69.2043 58.5556H69.195ZM22.0689 66.4285C16.0022 66.4285 10.8895 64.4464 6.86044 60.6026C2.89622 56.6384 0.914062 51.5256 0.914062 45.394V44.19H8.97214V45.394C8.97214 49.3583 10.1114 52.5445 12.5751 55.0082C15.0389 57.4164 18.1047 58.5556 22.0689 58.5556C26.0331 58.5556 28.9786 57.4164 31.3867 55.0082C33.7949 52.6 35.0545 49.4231 35.0545 45.4496V0.00921472H43.1127V45.3848C43.1127 51.5164 41.0658 56.6199 37.1016 60.5933C33.1373 64.502 28.0894 66.4193 22.0782 66.4193L22.0689 66.4285ZM248.484 65.0485V33.3717C248.484 29.5279 247.344 26.5825 245.057 24.2948C242.769 21.9514 239.823 20.8122 236.044 20.8122C232.265 20.8122 228.894 22.1366 225.708 24.8412C222.586 27.4902 221.021 30.4912 220.956 34.0386V64.9929H212.898V14.3286H220.956V20.0341C222.216 18.654 223.781 17.3296 225.708 16.1255C229.07 14.023 232.682 12.9393 236.526 12.9393C242.713 12.9393 247.706 14.8658 251.188 18.6448C254.736 22.3682 256.542 27.2957 256.542 33.3717V65.0485H248.484Z" fill="#04294A"/>
</svg>
