<svg width="334" height="368" viewBox="0 0 334 368" fill="none" xmlns="http://www.w3.org/2000/svg">
<path d="M71.1934 151.914C79.1892 171.469 96.1174 176.303 114.401 178.243C135.712 180.552 156.755 177.608 177.848 174.63C198.356 171.703 219.082 169.896 239.757 172.957C259.981 175.935 278.448 182.626 292.098 198.868C304.108 213.137 307.504 229.932 305.547 247.997C302.168 279.83 287.03 306.879 270.821 333.526C265.986 341.421 260.985 349.233 255.281 356.559C246.749 367.533 233.116 370.059 223.08 363.284C216.707 358.952 214.147 352.545 214.633 345.268C215.536 332.12 217.66 318.989 218.329 305.808C218.865 295.688 218.329 285.534 217.56 275.38C217.292 271.851 215.302 268.204 213.278 265.177C207.139 256.093 194.308 256.997 188.22 266.163C173.499 288.478 158.829 310.726 143.34 332.455C138.054 339.865 130.827 346.188 123.601 351.876C107.843 364.254 90.0956 362.715 75.3753 348.664C60.471 334.479 51.0365 316.647 42.2378 298.548C25.7611 264.591 13.0147 229.279 4.4502 192.529C-0.11644 173.074 -2.24089 153.419 3.36286 133.731C9.41825 112.554 22.2818 97.2481 43.7266 91.1091C61.692 85.957 79.5404 88.9011 96.6025 95.7594C110.42 101.363 123.835 108.088 137.602 113.775C158.143 122.306 179.454 123.527 201.083 118.961C216.121 115.749 230.44 110.563 243.805 103.069C245.027 102.35 246.281 99.406 245.829 98.1849C237.198 76.0543 245.913 60.0293 262.039 47.4836C269.482 41.6623 277.127 36.1422 284.571 30.3711C293.018 23.7805 298.789 15.4668 300.278 4.54372C300.495 3.05496 301.231 1.56628 301.716 0.0273438C314.229 8.55842 323.078 41.7459 318.912 61.1165C312.723 90.0552 290.777 109.075 264.899 112.186C292.031 100.995 309.294 82.2434 311.318 51.9999C312.171 39.0026 309.328 25.6372 304.945 20.5353C304.309 21.0706 303.456 21.4888 303.055 22.1077C295.912 34.1181 284.805 41.8798 273.698 49.7417C266.02 55.2117 257.355 60.347 254.829 70.0156C253.34 75.9372 253.658 82.7119 254.461 88.8509C255.23 94.187 258.208 95.1237 262.223 91.6444C271.707 83.3307 280.773 74.6658 289.94 66.0344C291.696 64.3616 293.185 62.3711 295.092 60.2132C294.775 67.4897 283.483 84.2341 270.804 94.5383C260.065 103.253 248.406 110.881 236.128 119.78C253.558 123.477 269.131 129.348 282.915 139.418C296.782 149.572 307.788 162.001 314.429 178.16C302.553 165.162 291.211 151.563 275.37 143.032C270.486 150.258 271.122 160.512 277.763 167.32C282.145 171.836 287.598 175.5 293.018 178.795C302.687 184.8 312.924 189.986 320.15 199.203C320.736 199.972 321.823 200.29 323.395 201.193C327.059 184.583 325.57 169.227 317.34 154.858C309.076 140.506 296.481 131.423 279.502 126.455C293.051 123.979 315.935 135.086 326.155 152.65C338.484 173.777 335.188 205.576 322.81 219.293C322.408 218.975 321.723 218.791 321.589 218.389C316.805 203.619 305.112 195.807 292.416 188.765C286.494 185.469 280.539 182.174 275.303 177.976C264.062 168.993 260.633 156.715 263.343 142.931C264.297 138.097 262.841 136.525 258.693 135.387C240.176 130.553 221.491 129.516 202.572 132.226C175.791 136.056 149.78 134.701 124.772 122.975C111.323 116.652 97.5392 110.463 83.3709 106.131C66.476 100.945 49.23 100.176 33.7068 111.467C24.9415 117.84 20.2076 126.823 17.0461 136.893C11.2249 155.594 13.9681 174.229 18.8024 192.345C24.7574 214.509 31.9001 236.455 39.9294 257.95C49.8656 284.313 61.3407 310.157 79.256 332.405C82.3673 336.235 86.2147 339.581 90.1457 342.558C96.3349 347.292 105.903 346.707 113.263 341.839C127.933 332.087 137.518 317.902 146.819 303.5C156.571 288.378 166.24 273.206 175.942 258.034C183.436 246.391 194.777 242.812 207.557 245.07C218.48 247.01 225.439 255.006 229.42 265.16C234.89 278.927 233.117 293.329 232.314 307.564C231.728 317.367 230.106 327.069 229.069 336.871C228.701 340.083 228.533 343.328 228.801 346.49C229.336 352.277 233.769 354.753 238.687 351.775C241.932 349.835 245.06 347.041 247.168 343.913C260.215 324.911 272.276 305.356 281.309 284.079C286.862 271.031 291.061 257.432 291.329 243.263C291.83 218.875 281.944 202.08 258.057 191.659C245.328 186.105 231.778 183.579 217.961 183.847C194.342 184.299 170.723 185.52 147.07 186.055C128.686 186.456 110.269 186.055 93.0228 178.327C81.4138 173.175 72.9329 165.229 71.0762 151.864H71.1599V151.914H71.1934Z" fill="#04294A"/>
</svg>
