<svg width="396" height="396" viewBox="0 0 396 396" fill="none" xmlns="http://www.w3.org/2000/svg">
<path d="M367.932 254.633C356.234 221.403 327.468 202.275 296.446 202.471C330.166 211.619 353.389 231.139 360.305 266.502C363.272 281.707 361.923 297.917 357.509 304.612C356.7 304.072 355.596 303.754 355.008 303.018C344.782 289.922 330.484 282.443 316.211 274.816C306.328 269.543 295.317 264.786 290.854 253.701C288.181 246.908 287.519 238.913 287.593 231.532C287.691 225.131 291.099 223.537 296.323 227.068C308.756 235.406 320.798 244.284 332.937 253.112C335.291 254.829 337.302 256.963 339.877 259.194C338.405 250.66 322.538 232.586 306.034 222.36C292.105 213.703 277.244 206.493 261.401 197.861C277.244 189.253 292.105 182.019 306.034 173.362C322.538 163.135 338.405 145.062 339.877 136.528C337.302 138.759 335.266 140.893 332.937 142.609C320.798 151.438 308.781 160.315 296.323 168.653C291.075 172.185 287.666 170.591 287.593 164.19C287.519 156.784 288.181 148.789 290.854 142.021C295.293 130.961 306.328 126.179 316.211 120.906C330.484 113.279 344.782 105.8 355.008 92.7039C355.572 91.9682 356.7 91.6494 357.509 91.1099C361.923 97.7803 363.248 114.015 360.305 129.219C353.389 164.582 330.166 184.103 296.446 193.25C327.468 193.447 356.234 174.318 367.932 141.089C375.779 118.871 370.311 78.3577 356.847 66.3657C355.989 68.1068 354.934 69.7253 354.444 71.491C351.01 84.1942 342.967 93.0963 331.98 99.6196C322.318 105.285 312.484 110.68 302.822 116.418C281.879 128.778 269.151 146.411 276.017 173.803C276.361 175.275 274.448 178.61 272.879 179.248C258.557 185.011 243.72 187.61 228.442 189.204C224.469 189.621 220.472 189.817 216.474 189.817C210.613 189.817 205.831 185.084 205.806 179.198V173.632C205.855 164.264 207.376 155.165 208.847 146.043C210.809 138.122 213.311 130.323 216.376 122.672C217.038 121.102 220.349 119.189 221.82 119.533C249.213 126.399 266.846 113.672 279.205 92.7285C284.944 83.0662 290.315 73.2322 296.004 63.5699C302.527 52.5834 311.429 44.5151 324.133 41.1063C325.874 40.6158 327.492 39.5613 329.258 38.703C317.266 25.2396 276.753 19.7708 254.535 27.6183C221.305 39.3161 202.177 68.0823 202.373 99.1046C211.521 65.3847 231.041 42.1609 266.404 35.2453C281.609 32.2779 297.819 33.6266 304.514 38.0408C303.974 38.8501 303.656 39.9537 302.92 40.5423C289.824 50.7686 282.345 65.0659 274.718 79.3386C269.445 89.2216 264.687 100.233 253.603 104.696C246.81 107.369 238.815 108.031 231.434 107.958C225.033 107.859 223.439 104.451 226.97 99.2271C235.308 86.7937 244.186 74.7527 253.014 62.6135C254.731 60.2592 256.865 58.2483 259.096 55.6733C250.562 57.1447 232.488 73.0116 222.262 89.5159C213.605 103.445 206.395 118.306 197.763 134.149C189.155 118.306 181.921 103.445 173.264 89.5159C163.038 73.0116 144.964 57.1447 136.429 55.6733C138.661 58.2483 140.795 60.2838 142.511 62.6135C151.34 74.7527 160.217 86.7692 168.555 99.2271C172.087 104.475 170.492 107.884 164.092 107.958C156.686 108.031 148.691 107.369 141.923 104.696C130.863 100.257 126.08 89.2216 120.808 79.3386C113.181 65.0659 105.701 50.7686 92.6058 40.5423C91.8701 39.9782 91.5513 38.8501 91.0117 38.0408C97.6821 33.6266 113.917 32.3024 129.121 35.2453C164.484 42.1609 184.005 65.3847 193.152 99.1046C193.349 68.0823 174.22 39.3161 140.991 27.6183C118.772 19.7708 78.2596 25.2396 66.2675 38.703C68.0087 39.5613 69.6272 40.6158 71.3929 41.1063C84.0961 44.5396 92.9981 52.5834 99.5213 63.5699C105.186 73.2322 110.581 83.0662 116.32 92.7285C128.68 113.672 146.312 126.399 173.705 119.533C175.177 119.189 178.512 121.102 179.149 122.672C184.912 136.993 187.512 151.855 189.106 167.108C189.523 171.081 189.719 175.079 189.719 179.076V179.149C189.719 185.01 184.986 189.793 179.1 189.817H173.631C164.263 189.768 155.165 188.248 146.042 186.776C138.121 184.814 130.323 182.313 122.672 179.248C121.102 178.585 119.189 175.275 119.533 173.803C126.399 146.411 113.671 128.778 92.7283 116.418C83.066 110.68 73.232 105.309 63.5697 99.6196C52.5832 93.0963 44.5151 84.1942 41.1064 71.491C40.6159 69.7498 39.5611 68.1314 38.7028 66.3657C25.2394 78.3577 19.7709 118.871 27.6184 141.089C39.3161 174.318 68.082 193.447 99.1043 193.25C65.3844 184.103 42.1608 164.582 35.2452 129.219C32.2778 114.015 33.6267 97.8048 38.0409 91.1099C38.8502 91.6494 39.9535 91.9682 40.5421 92.7039C50.7684 105.8 65.0658 113.279 79.3385 120.906C89.2215 126.179 100.232 130.936 104.696 142.021C107.369 148.814 108.031 156.808 107.958 164.19C107.859 170.591 104.451 172.185 99.2271 168.653C86.7936 160.315 74.7524 151.438 62.6133 142.609C60.259 140.893 58.2482 138.759 55.6732 136.528C57.1446 145.062 73.0115 163.135 89.5158 173.362C103.445 182.019 118.306 189.229 134.149 197.861C118.306 206.469 103.445 213.703 89.5158 222.36C73.0115 232.586 57.1446 250.66 55.6732 259.194C58.2482 256.963 60.2835 254.829 62.6133 253.112C74.7524 244.284 86.7691 235.406 99.2271 227.068C104.475 223.537 107.884 225.131 107.958 231.532C108.031 238.938 107.369 246.932 104.696 253.701C100.257 264.761 89.2215 269.543 79.3385 274.816C65.0658 282.443 50.7684 289.922 40.5421 303.018C39.978 303.754 38.8502 304.072 38.0409 304.612C33.6267 297.942 32.3024 281.707 35.2452 266.502C42.1608 231.139 65.3844 211.619 99.1043 202.471C68.082 202.275 39.3161 221.403 27.6184 254.633C19.7709 276.851 25.2394 317.364 38.7028 329.356C39.5611 327.615 40.6159 325.996 41.1064 324.231C44.5397 311.528 52.5832 302.626 63.5697 296.102C73.232 290.437 83.066 285.042 92.7283 279.304C113.671 266.944 126.399 249.311 119.533 221.919C119.189 220.447 121.102 217.112 122.672 216.474C136.993 210.711 151.855 208.112 167.108 206.518C171.081 206.101 175.079 205.905 179.076 205.905C184.937 205.905 189.719 210.638 189.744 216.523V222.09C189.695 231.458 188.174 240.556 186.703 249.679C184.741 257.6 182.239 265.399 179.174 273.05C178.512 274.62 175.201 276.533 173.73 276.189C146.337 269.323 128.704 282.05 116.344 302.993C110.606 312.656 105.235 322.49 99.5459 332.152C93.0226 343.138 84.1206 351.207 71.4174 354.615C69.6763 355.106 68.0575 356.16 66.2918 357.019C78.2838 370.482 118.797 375.951 141.015 368.103C174.245 356.406 193.373 327.64 193.177 296.617C184.03 330.337 164.509 353.561 129.146 360.477C113.941 363.444 97.7312 362.095 91.0363 357.681C91.5758 356.872 91.8947 355.768 92.6304 355.179C105.726 344.953 113.206 330.656 120.832 316.383C126.105 306.5 130.863 295.489 141.947 291.026C148.74 288.353 156.735 287.691 164.116 287.764C170.517 287.862 172.111 291.271 168.58 296.495C160.242 308.928 151.364 320.969 142.536 333.108C140.819 335.463 138.686 337.473 136.454 340.048C144.988 338.577 163.062 322.71 173.288 306.206C181.945 292.277 189.155 277.415 197.787 261.573C206.395 277.415 213.63 292.277 222.286 306.206C232.513 322.71 250.586 338.577 259.121 340.048C256.889 337.473 254.755 335.438 253.039 333.108C244.21 320.969 235.333 308.953 226.995 296.495C223.463 291.247 225.058 287.838 231.458 287.764C238.864 287.691 246.859 288.353 253.627 291.026C264.687 295.465 269.469 306.5 274.742 316.383C282.369 330.656 289.849 344.953 302.944 355.179C303.68 355.744 303.999 356.872 304.538 357.681C297.868 362.095 281.633 363.419 266.429 360.477C231.066 353.561 211.545 330.337 202.398 296.617C202.201 327.64 221.33 356.406 254.559 368.103C276.778 375.951 317.291 370.482 329.283 357.019C327.542 356.16 325.923 355.106 324.157 354.615C311.454 351.182 302.552 343.138 296.029 332.152C290.364 322.49 284.969 312.656 279.23 302.993C266.87 282.05 249.238 269.323 221.845 276.189C220.373 276.533 217.038 274.62 216.401 273.05C210.638 258.728 208.038 243.867 206.444 228.613C206.027 224.641 205.831 220.643 205.831 216.646V216.572C205.831 210.711 210.564 205.929 216.45 205.905H221.918C231.286 205.954 240.385 207.474 249.507 208.946C257.429 210.907 265.227 213.409 272.879 216.474C274.448 217.137 276.361 220.447 276.017 221.919C269.151 249.311 281.879 266.944 302.822 279.304C312.484 285.042 322.318 290.413 331.98 296.102C342.967 302.626 351.035 311.528 354.444 324.231C354.934 325.972 355.989 327.59 356.847 329.356C370.311 317.364 375.779 276.851 367.932 254.633Z" fill="#F3F8F7" fill-opacity="0.015"/>
</svg>
