<svg width="250" height="104" viewBox="0 0 250 104" fill="none" xmlns="http://www.w3.org/2000/svg">
<path d="M0 38.5425C0 17.5557 17.0132 0.54248 38 0.54248H164C184.987 0.54248 202 17.5557 202 38.5425C202 59.5293 184.987 76.5425 164 76.5425H38C17.0132 76.5425 0 59.5293 0 38.5425Z" fill="#04294A"/>
<path d="M31.6543 45.0425V32.2456H33.9658V45.0425H31.6543ZM38.8174 45.0425L34.4756 38.8989L36.4355 37.6772L41.6299 45.0425H38.8174ZM32.8145 37.5366H34.8008L38.5889 32.2456H41.1377L35.7324 39.3647H32.8145V37.5366ZM24.0957 45.0425L29.3076 37.686L31.1533 38.8989L26.8115 45.0425H24.0957ZM32.8145 37.5366V39.3647H29.7822L24.3945 32.2456H27.0225L30.8105 37.5366H32.8145ZM41.999 42.353C41.999 41.3687 42.3828 40.6187 43.1504 40.103C43.918 39.5874 44.8906 39.3296 46.0684 39.3296H47.9756V38.7671C47.9756 38.3042 47.8555 37.9321 47.6152 37.6509C47.3809 37.3696 46.9707 37.229 46.3848 37.229C45.7988 37.229 45.3799 37.3462 45.1279 37.5806C44.8818 37.8149 44.7588 38.0991 44.7588 38.4331V38.5474H42.5088V38.4331C42.5088 37.6362 42.8721 36.9712 43.5986 36.438C44.3252 35.8989 45.2832 35.6294 46.4727 35.6294C47.668 35.6294 48.5967 35.8872 49.2588 36.4028C49.9268 36.9185 50.2607 37.7095 50.2607 38.7759V42.9683C50.2607 43.3433 50.293 43.7007 50.3574 44.0405C50.4219 44.3745 50.5098 44.6616 50.6211 44.9019V45.0425H48.3799C48.3037 44.9019 48.2363 44.7202 48.1777 44.4976C48.1191 44.2749 48.0811 44.0552 48.0635 43.8384C47.8701 44.1958 47.5244 44.5151 47.0264 44.7964C46.5283 45.0718 45.9043 45.2095 45.1543 45.2095C44.2578 45.2095 43.5078 44.9692 42.9043 44.4888C42.3008 44.0083 41.999 43.2964 41.999 42.353ZM44.293 42.1685C44.293 42.6138 44.4189 42.9683 44.6709 43.2319C44.9287 43.4897 45.3301 43.6187 45.875 43.6187C46.4492 43.6187 46.9414 43.4312 47.3516 43.0562C47.7676 42.6812 47.9756 42.2505 47.9756 41.7642V40.7534H46.4023C45.6934 40.7534 45.1631 40.8794 44.8115 41.1313C44.4658 41.3774 44.293 41.7231 44.293 42.1685ZM59.6562 47.4155V45.0425H53.6533V47.4155H51.5264V43.311H61.792V47.4155H59.6562ZM55.3057 37.6245L55.1914 40.2261C55.1562 41.0171 55.0977 41.6646 55.0156 42.1685C54.9336 42.6665 54.8135 43.0972 54.6553 43.4604H52.4053C52.6104 43.144 52.7773 42.6987 52.9062 42.1245C53.0352 41.5444 53.1201 40.7476 53.1611 39.7339L53.3281 35.8931H60.4473V45.0425H58.1533V37.6245H55.3057ZM62.6182 42.353C62.6182 41.3687 63.002 40.6187 63.7695 40.103C64.5371 39.5874 65.5098 39.3296 66.6875 39.3296H68.5947V38.7671C68.5947 38.3042 68.4746 37.9321 68.2344 37.6509C68 37.3696 67.5898 37.229 67.0039 37.229C66.418 37.229 65.999 37.3462 65.7471 37.5806C65.501 37.8149 65.3779 38.0991 65.3779 38.4331V38.5474H63.1279V38.4331C63.1279 37.6362 63.4912 36.9712 64.2178 36.438C64.9443 35.8989 65.9023 35.6294 67.0918 35.6294C68.2871 35.6294 69.2158 35.8872 69.8779 36.4028C70.5459 36.9185 70.8799 37.7095 70.8799 38.7759V42.9683C70.8799 43.3433 70.9121 43.7007 70.9766 44.0405C71.041 44.3745 71.1289 44.6616 71.2402 44.9019V45.0425H68.999C68.9229 44.9019 68.8555 44.7202 68.7969 44.4976C68.7383 44.2749 68.7002 44.0552 68.6826 43.8384C68.4893 44.1958 68.1436 44.5151 67.6455 44.7964C67.1475 45.0718 66.5234 45.2095 65.7734 45.2095C64.877 45.2095 64.127 44.9692 63.5234 44.4888C62.9199 44.0083 62.6182 43.2964 62.6182 42.353ZM64.9121 42.1685C64.9121 42.6138 65.0381 42.9683 65.29 43.2319C65.5479 43.4897 65.9492 43.6187 66.4941 43.6187C67.0684 43.6187 67.5605 43.4312 67.9707 43.0562C68.3867 42.6812 68.5947 42.2505 68.5947 41.7642V40.7534H67.0215C66.3125 40.7534 65.7822 40.8794 65.4307 41.1313C65.085 41.3774 64.9121 41.7231 64.9121 42.1685ZM73.2178 35.8931H75.5117V39.5054H78.9746V35.8931H81.2686V45.0425H78.9746V41.2368H75.5117V45.0425H73.2178V35.8931ZM86.6123 45.0425L91.3936 32.1841H93.8193L98.6533 45.0425H96.1484L92.835 35.7788C92.7646 35.5796 92.7061 35.3892 92.6592 35.2075C92.6182 35.0259 92.5771 34.8442 92.5361 34.6626H92.4658C92.4307 34.8442 92.3896 35.0288 92.3428 35.2163C92.2959 35.3979 92.2373 35.5854 92.167 35.7788L88.8535 45.0425H86.6123ZM89.1084 42.0542L89.6709 40.2788H95.4453L96.0166 42.0542H89.1084ZM99.6553 35.8931H101.949V39.5054H105.412V35.8931H107.706V45.0425H105.412V41.2368H101.949V45.0425H99.6553V35.8931ZM109.552 42.353C109.552 41.3687 109.936 40.6187 110.703 40.103C111.471 39.5874 112.443 39.3296 113.621 39.3296H115.528V38.7671C115.528 38.3042 115.408 37.9321 115.168 37.6509C114.934 37.3696 114.523 37.229 113.938 37.229C113.352 37.229 112.933 37.3462 112.681 37.5806C112.435 37.8149 112.312 38.0991 112.312 38.4331V38.5474H110.062V38.4331C110.062 37.6362 110.425 36.9712 111.151 36.438C111.878 35.8989 112.836 35.6294 114.025 35.6294C115.221 35.6294 116.149 35.8872 116.812 36.4028C117.479 36.9185 117.813 37.7095 117.813 38.7759V42.9683C117.813 43.3433 117.846 43.7007 117.91 44.0405C117.975 44.3745 118.062 44.6616 118.174 44.9019V45.0425H115.933C115.856 44.9019 115.789 44.7202 115.73 44.4976C115.672 44.2749 115.634 44.0552 115.616 43.8384C115.423 44.1958 115.077 44.5151 114.579 44.7964C114.081 45.0718 113.457 45.2095 112.707 45.2095C111.811 45.2095 111.061 44.9692 110.457 44.4888C109.854 44.0083 109.552 43.2964 109.552 42.353ZM111.846 42.1685C111.846 42.6138 111.972 42.9683 112.224 43.2319C112.481 43.4897 112.883 43.6187 113.428 43.6187C114.002 43.6187 114.494 43.4312 114.904 43.0562C115.32 42.6812 115.528 42.2505 115.528 41.7642V40.7534H113.955C113.246 40.7534 112.716 40.8794 112.364 41.1313C112.019 41.3774 111.846 41.7231 111.846 42.1685ZM119.642 40.604V40.3228C119.642 38.8931 120.049 37.7534 120.863 36.9038C121.684 36.0542 122.785 35.6294 124.168 35.6294C125.469 35.6294 126.459 35.9604 127.139 36.6226C127.818 37.2788 128.176 38.0552 128.211 38.9517L128.22 39.0747H125.987V38.978C125.987 38.5269 125.838 38.146 125.539 37.8354C125.24 37.519 124.78 37.3608 124.159 37.3608C123.433 37.3608 122.888 37.6245 122.524 38.1519C122.161 38.6792 121.979 39.3706 121.979 40.2261V40.6919C121.979 41.5474 122.155 42.2417 122.507 42.7749C122.864 43.3081 123.412 43.5747 124.15 43.5747C124.807 43.5747 125.275 43.4106 125.557 43.0825C125.844 42.7544 125.987 42.3735 125.987 41.9399V41.8521H128.211V41.9487C128.211 42.8452 127.862 43.6274 127.165 44.2954C126.468 44.9634 125.469 45.2974 124.168 45.2974C122.791 45.2974 121.692 44.8726 120.872 44.0229C120.052 43.1675 119.642 42.0278 119.642 40.604ZM128.94 37.6245V35.8931H136.815V37.6245H134.021V45.0425H131.735V37.6245H128.94ZM137.765 42.353C137.765 41.3687 138.148 40.6187 138.916 40.103C139.684 39.5874 140.656 39.3296 141.834 39.3296H143.741V38.7671C143.741 38.3042 143.621 37.9321 143.381 37.6509C143.146 37.3696 142.736 37.229 142.15 37.229C141.564 37.229 141.146 37.3462 140.894 37.5806C140.647 37.8149 140.524 38.0991 140.524 38.4331V38.5474H138.274V38.4331C138.274 37.6362 138.638 36.9712 139.364 36.438C140.091 35.8989 141.049 35.6294 142.238 35.6294C143.434 35.6294 144.362 35.8872 145.024 36.4028C145.692 36.9185 146.026 37.7095 146.026 38.7759V42.9683C146.026 43.3433 146.059 43.7007 146.123 44.0405C146.188 44.3745 146.275 44.6616 146.387 44.9019V45.0425H144.146C144.069 44.9019 144.002 44.7202 143.943 44.4976C143.885 44.2749 143.847 44.0552 143.829 43.8384C143.636 44.1958 143.29 44.5151 142.792 44.7964C142.294 45.0718 141.67 45.2095 140.92 45.2095C140.023 45.2095 139.273 44.9692 138.67 44.4888C138.066 44.0083 137.765 43.2964 137.765 42.353ZM140.059 42.1685C140.059 42.6138 140.185 42.9683 140.437 43.2319C140.694 43.4897 141.096 43.6187 141.641 43.6187C142.215 43.6187 142.707 43.4312 143.117 43.0562C143.533 42.6812 143.741 42.2505 143.741 41.7642V40.7534H142.168C141.459 40.7534 140.929 40.8794 140.577 41.1313C140.231 41.3774 140.059 41.7231 140.059 42.1685ZM147.854 40.604V40.3228C147.854 38.8931 148.262 37.7534 149.076 36.9038C149.896 36.0542 150.998 35.6294 152.381 35.6294C153.682 35.6294 154.672 35.9604 155.352 36.6226C156.031 37.2788 156.389 38.0552 156.424 38.9517L156.433 39.0747H154.2V38.978C154.2 38.5269 154.051 38.146 153.752 37.8354C153.453 37.519 152.993 37.3608 152.372 37.3608C151.646 37.3608 151.101 37.6245 150.737 38.1519C150.374 38.6792 150.192 39.3706 150.192 40.2261V40.6919C150.192 41.5474 150.368 42.2417 150.72 42.7749C151.077 43.3081 151.625 43.5747 152.363 43.5747C153.02 43.5747 153.488 43.4106 153.77 43.0825C154.057 42.7544 154.2 42.3735 154.2 41.9399V41.8521H156.424V41.9487C156.424 42.8452 156.075 43.6274 155.378 44.2954C154.681 44.9634 153.682 45.2974 152.381 45.2974C151.004 45.2974 149.905 44.8726 149.085 44.0229C148.265 43.1675 147.854 42.0278 147.854 40.604ZM158.05 45.0425V35.8931H160.326V40.771C160.326 40.9526 160.323 41.1636 160.317 41.4038C160.312 41.644 160.3 41.8521 160.282 42.0278H160.361C160.443 41.8755 160.534 41.7114 160.634 41.5356C160.733 41.3599 160.845 41.1577 160.968 40.9292L163.965 35.8931H166.268V45.0425H163.991V40.1382C163.991 39.9565 163.994 39.7485 164 39.5142C164.006 39.2739 164.015 39.0659 164.026 38.8901H163.921C163.845 39.0483 163.76 39.2153 163.666 39.3911C163.578 39.561 163.473 39.7573 163.35 39.98L160.353 45.0425H158.05ZM170.451 45.0425H168.008L170.592 41.228L172.877 41.3687L170.451 45.0425ZM174.116 45.0425V41.8521H172.279L171.901 41.7554C170.759 41.7554 169.88 41.4946 169.265 40.9731C168.649 40.4458 168.342 39.7368 168.342 38.8462C168.342 37.9497 168.649 37.2349 169.265 36.7017C169.88 36.1626 170.759 35.8931 171.901 35.8931H176.41V45.0425H174.116ZM172.253 40.3052H174.116V37.4136H172.253C171.661 37.4136 171.242 37.5513 170.996 37.8267C170.756 38.1021 170.636 38.4507 170.636 38.8726C170.636 39.2944 170.756 39.6401 170.996 39.9097C171.236 40.1733 171.655 40.3052 172.253 40.3052Z" fill="#F3F8F7"/>
<rect width="21" height="21" rx="10.5" transform="matrix(-1 0 0 1 170 63.5425)" fill="#04294A"/>
<rect width="15" height="15" rx="7.5" transform="matrix(-1 0 0 1 145 88.5425)" fill="#04294A"/>
</svg>
