<svg width="250" height="104" viewBox="0 0 250 104" fill="none" xmlns="http://www.w3.org/2000/svg">
<path d="M29 38.543C29 17.5561 46.0132 0.542969 67 0.542969H153C173.987 0.542969 191 17.5561 191 38.543V38.543C191 59.5298 173.987 76.543 153 76.543H67C46.0132 76.543 29 59.5298 29 38.543V38.543Z" fill="#F3F8F7"/>
<path d="M60.3242 45.043V32.2461H62.6357V45.043H60.3242ZM67.4873 45.043L63.1455 38.8994L65.1055 37.6777L70.2998 45.043H67.4873ZM61.4844 37.5371H63.4707L67.2588 32.2461H69.8076L64.4023 39.3652H61.4844V37.5371ZM52.7656 45.043L57.9775 37.6865L59.8232 38.8994L55.4814 45.043H52.7656ZM61.4844 37.5371V39.3652H58.4521L53.0645 32.2461H55.6924L59.4805 37.5371H61.4844ZM70.6689 42.3535C70.6689 41.3691 71.0527 40.6191 71.8203 40.1035C72.5879 39.5879 73.5605 39.3301 74.7383 39.3301H76.6455V38.7676C76.6455 38.3047 76.5254 37.9326 76.2852 37.6514C76.0508 37.3701 75.6406 37.2295 75.0547 37.2295C74.4688 37.2295 74.0498 37.3467 73.7979 37.5811C73.5518 37.8154 73.4287 38.0996 73.4287 38.4336V38.5479H71.1787V38.4336C71.1787 37.6367 71.542 36.9717 72.2686 36.4385C72.9951 35.8994 73.9531 35.6299 75.1426 35.6299C76.3379 35.6299 77.2666 35.8877 77.9287 36.4033C78.5967 36.9189 78.9307 37.71 78.9307 38.7764V42.9688C78.9307 43.3438 78.9629 43.7012 79.0273 44.041C79.0918 44.375 79.1797 44.6621 79.291 44.9023V45.043H77.0498C76.9736 44.9023 76.9062 44.7207 76.8477 44.498C76.7891 44.2754 76.751 44.0557 76.7334 43.8389C76.54 44.1963 76.1943 44.5156 75.6963 44.7969C75.1982 45.0723 74.5742 45.21 73.8242 45.21C72.9277 45.21 72.1777 44.9697 71.5742 44.4893C70.9707 44.0088 70.6689 43.2969 70.6689 42.3535ZM72.9629 42.1689C72.9629 42.6143 73.0889 42.9688 73.3408 43.2324C73.5986 43.4902 74 43.6191 74.5449 43.6191C75.1191 43.6191 75.6113 43.4316 76.0215 43.0566C76.4375 42.6816 76.6455 42.251 76.6455 41.7646V40.7539H75.0723C74.3633 40.7539 73.833 40.8799 73.4814 41.1318C73.1357 41.3779 72.9629 41.7236 72.9629 42.1689ZM88.3262 47.416V45.043H82.3232V47.416H80.1963V43.3115H90.4619V47.416H88.3262ZM83.9756 37.625L83.8613 40.2266C83.8262 41.0176 83.7676 41.665 83.6855 42.1689C83.6035 42.667 83.4834 43.0977 83.3252 43.4609H81.0752C81.2803 43.1445 81.4473 42.6992 81.5762 42.125C81.7051 41.5449 81.79 40.748 81.8311 39.7344L81.998 35.8936H89.1172V45.043H86.8232V37.625H83.9756ZM91.2881 42.3535C91.2881 41.3691 91.6719 40.6191 92.4395 40.1035C93.207 39.5879 94.1797 39.3301 95.3574 39.3301H97.2646V38.7676C97.2646 38.3047 97.1445 37.9326 96.9043 37.6514C96.6699 37.3701 96.2598 37.2295 95.6738 37.2295C95.0879 37.2295 94.6689 37.3467 94.417 37.5811C94.1709 37.8154 94.0479 38.0996 94.0479 38.4336V38.5479H91.7979V38.4336C91.7979 37.6367 92.1611 36.9717 92.8877 36.4385C93.6143 35.8994 94.5723 35.6299 95.7617 35.6299C96.957 35.6299 97.8857 35.8877 98.5479 36.4033C99.2158 36.9189 99.5498 37.71 99.5498 38.7764V42.9688C99.5498 43.3438 99.582 43.7012 99.6465 44.041C99.7109 44.375 99.7988 44.6621 99.9102 44.9023V45.043H97.6689C97.5928 44.9023 97.5254 44.7207 97.4668 44.498C97.4082 44.2754 97.3701 44.0557 97.3525 43.8389C97.1592 44.1963 96.8135 44.5156 96.3154 44.7969C95.8174 45.0723 95.1934 45.21 94.4434 45.21C93.5469 45.21 92.7969 44.9697 92.1934 44.4893C91.5898 44.0088 91.2881 43.2969 91.2881 42.3535ZM93.582 42.1689C93.582 42.6143 93.708 42.9688 93.96 43.2324C94.2178 43.4902 94.6191 43.6191 95.1641 43.6191C95.7383 43.6191 96.2305 43.4316 96.6406 43.0566C97.0566 42.6816 97.2646 42.251 97.2646 41.7646V40.7539H95.6914C94.9824 40.7539 94.4521 40.8799 94.1006 41.1318C93.7549 41.3779 93.582 41.7236 93.582 42.1689ZM101.888 35.8936H104.182V39.5059H107.645V35.8936H109.938V45.043H107.645V41.2373H104.182V45.043H101.888V35.8936ZM127.13 45.043H124.766V36.7725C124.766 36.5732 124.769 36.3535 124.774 36.1133C124.78 35.873 124.786 35.6562 124.792 35.4629H124.722C124.64 35.6387 124.552 35.8203 124.458 36.0078C124.364 36.1895 124.259 36.3857 124.142 36.5967L119.36 45.043H116.803V32.2461H119.158V40.5254C119.158 40.7188 119.155 40.9385 119.149 41.1846C119.149 41.4248 119.146 41.6416 119.141 41.835H119.211C119.281 41.6709 119.366 41.4922 119.466 41.2988C119.571 41.0996 119.68 40.8975 119.791 40.6924L124.572 32.2461H127.13V45.043ZM129.661 35.8936H135.989V37.625H131.955V45.043H129.661V35.8936ZM136.921 40.6045V40.3232C136.921 38.9053 137.343 37.7686 138.187 36.9131C139.036 36.0576 140.149 35.6299 141.526 35.6299C142.903 35.6299 144.014 36.0576 144.857 36.9131C145.701 37.7686 146.123 38.9053 146.123 40.3232V40.6045C146.123 42.0225 145.701 43.1592 144.857 44.0146C144.014 44.8701 142.903 45.2979 141.526 45.2979C140.149 45.2979 139.036 44.8701 138.187 44.0146C137.343 43.1592 136.921 42.0225 136.921 40.6045ZM139.259 40.2266V40.6924C139.259 41.5713 139.452 42.2656 139.839 42.7754C140.226 43.2852 140.788 43.54 141.526 43.54C142.259 43.54 142.818 43.2852 143.205 42.7754C143.592 42.2656 143.785 41.5713 143.785 40.6924V40.2266C143.785 39.3535 143.589 38.6621 143.196 38.1523C142.804 37.6426 142.247 37.3877 141.526 37.3877C140.8 37.3877 140.24 37.6426 139.848 38.1523C139.455 38.6621 139.259 39.3535 139.259 40.2266ZM147.942 48.7168V35.8936H150.078L150.131 36.9834H150.184C150.389 36.6201 150.729 36.3184 151.203 36.0781C151.684 35.832 152.223 35.709 152.82 35.709C153.992 35.709 154.933 36.1309 155.642 36.9746C156.351 37.8184 156.705 38.9316 156.705 40.3145V40.5957C156.705 41.9785 156.354 43.0947 155.65 43.9443C154.947 44.7939 154.019 45.2188 152.864 45.2188C152.267 45.2188 151.739 45.1162 151.282 44.9111C150.825 44.7061 150.477 44.4248 150.236 44.0674V48.7168H147.942ZM150.236 42.0986C150.383 42.4619 150.635 42.7812 150.992 43.0566C151.35 43.332 151.774 43.4697 152.267 43.4697C152.981 43.4697 153.509 43.2178 153.849 42.7139C154.194 42.2041 154.367 41.5303 154.367 40.6924V40.2266C154.367 39.3887 154.194 38.7178 153.849 38.2139C153.509 37.71 152.979 37.458 152.258 37.458C151.754 37.458 151.329 37.5928 150.983 37.8623C150.638 38.1318 150.389 38.4453 150.236 38.8027V42.0986ZM160.818 35.8936V38.8906H162.875C164.035 38.8906 164.92 39.166 165.529 39.7168C166.139 40.2676 166.443 41.0205 166.443 41.9756C166.443 42.9424 166.139 43.6953 165.529 44.2344C164.92 44.7734 164.035 45.043 162.875 45.043H158.524V35.8936H160.818ZM162.541 40.499H160.818V43.4346H162.541C163.121 43.4346 163.534 43.3027 163.78 43.0391C164.032 42.7695 164.158 42.4062 164.158 41.9492C164.158 41.5098 164.035 41.1582 163.789 40.8945C163.543 40.6309 163.127 40.499 162.541 40.499Z" fill="#04294A"/>
<rect x="74" y="67.543" width="21" height="21" rx="10.5" fill="#F3F8F7"/>
<rect x="95" y="88.543" width="15" height="15" rx="7.5" fill="#F3F8F7"/>
</svg>
