<svg width="250" height="104" viewBox="0 0 250 104" fill="none" xmlns="http://www.w3.org/2000/svg">
<rect y="0.542969" width="237" height="76" rx="38" fill="#F3F8F7"/>
<path d="M24.123 45.043L28.7021 37.8447H29.0537L32.3936 32.2461H34.793L30.4863 39.207H30.1436L26.5752 45.043H24.123ZM24.3252 32.2461L27.0234 32.2549L30.4072 37.8359H30.4512L35.0918 45.043H32.3672L28.79 39.251H28.7461L24.3252 32.2461ZM36.2871 45.043V35.8936H40.7168C41.8359 35.8936 42.6797 36.0898 43.248 36.4824C43.8164 36.875 44.1006 37.4609 44.1006 38.2402C44.1006 38.8027 43.9395 39.2598 43.6172 39.6113C43.2949 39.957 42.8584 40.1855 42.3076 40.2969V40.3232C42.9756 40.4229 43.4941 40.6543 43.8633 41.0176C44.2324 41.375 44.417 41.8496 44.417 42.4414C44.417 43.2617 44.124 43.9004 43.5381 44.3574C42.9521 44.8145 42.1201 45.043 41.042 45.043H36.2871ZM38.5459 39.6377H40.3916C40.8896 39.6377 41.2471 39.5352 41.4639 39.3301C41.6865 39.125 41.7979 38.835 41.7979 38.46C41.7979 38.1143 41.6865 37.8477 41.4639 37.6602C41.2471 37.4727 40.8896 37.3789 40.3916 37.3789H38.5459V39.6377ZM38.5459 43.5488H40.6465C41.1621 43.5488 41.5371 43.4375 41.7715 43.2148C42.0059 42.9922 42.123 42.6934 42.123 42.3184C42.123 41.9551 42.0059 41.665 41.7715 41.4482C41.543 41.2256 41.168 41.1143 40.6465 41.1143H38.5459V43.5488ZM45.8672 40.6045V40.3232C45.8672 38.9053 46.2891 37.7686 47.1328 36.9131C47.9824 36.0576 49.0957 35.6299 50.4727 35.6299C51.8496 35.6299 52.96 36.0576 53.8037 36.9131C54.6475 37.7686 55.0693 38.9053 55.0693 40.3232V40.6045C55.0693 42.0225 54.6475 43.1592 53.8037 44.0146C52.96 44.8701 51.8496 45.2979 50.4727 45.2979C49.0957 45.2979 47.9824 44.8701 47.1328 44.0146C46.2891 43.1592 45.8672 42.0225 45.8672 40.6045ZM48.2051 40.2266V40.6924C48.2051 41.5713 48.3984 42.2656 48.7852 42.7754C49.1719 43.2852 49.7344 43.54 50.4727 43.54C51.2051 43.54 51.7646 43.2852 52.1514 42.7754C52.5381 42.2656 52.7314 41.5713 52.7314 40.6924V40.2266C52.7314 39.3535 52.5352 38.6621 52.1426 38.1523C51.75 37.6426 51.1934 37.3877 50.4727 37.3877C49.7461 37.3877 49.1865 37.6426 48.7939 38.1523C48.4014 38.6621 48.2051 39.3535 48.2051 40.2266ZM56.8887 48.7168V35.8936H59.0244L59.0771 36.9834H59.1299C59.335 36.6201 59.6748 36.3184 60.1494 36.0781C60.6299 35.832 61.1689 35.709 61.7666 35.709C62.9385 35.709 63.8789 36.1309 64.5879 36.9746C65.2969 37.8184 65.6514 38.9316 65.6514 40.3145V40.5957C65.6514 41.9785 65.2998 43.0947 64.5967 43.9443C63.8936 44.7939 62.9648 45.2188 61.8105 45.2188C61.2129 45.2188 60.6855 45.1162 60.2285 44.9111C59.7715 44.7061 59.4229 44.4248 59.1826 44.0674V48.7168H56.8887ZM59.1826 42.0986C59.3291 42.4619 59.5811 42.7812 59.9385 43.0566C60.2959 43.332 60.7207 43.4697 61.2129 43.4697C61.9277 43.4697 62.4551 43.2178 62.7949 42.7139C63.1406 42.2041 63.3135 41.5303 63.3135 40.6924V40.2266C63.3135 39.3887 63.1406 38.7178 62.7949 38.2139C62.4551 37.71 61.9248 37.458 61.2041 37.458C60.7002 37.458 60.2754 37.5928 59.9297 37.8623C59.584 38.1318 59.335 38.4453 59.1826 38.8027V42.0986ZM66.9609 40.6045V40.3232C66.9609 38.9053 67.3828 37.7686 68.2266 36.9131C69.0762 36.0576 70.1895 35.6299 71.5664 35.6299C72.9434 35.6299 74.0537 36.0576 74.8975 36.9131C75.7412 37.7686 76.1631 38.9053 76.1631 40.3232V40.6045C76.1631 42.0225 75.7412 43.1592 74.8975 44.0146C74.0537 44.8701 72.9434 45.2979 71.5664 45.2979C70.1895 45.2979 69.0762 44.8701 68.2266 44.0146C67.3828 43.1592 66.9609 42.0225 66.9609 40.6045ZM69.2988 40.2266V40.6924C69.2988 41.5713 69.4922 42.2656 69.8789 42.7754C70.2656 43.2852 70.8281 43.54 71.5664 43.54C72.2988 43.54 72.8584 43.2852 73.2451 42.7754C73.6318 42.2656 73.8252 41.5713 73.8252 40.6924V40.2266C73.8252 39.3535 73.6289 38.6621 73.2363 38.1523C72.8438 37.6426 72.2871 37.3877 71.5664 37.3877C70.8398 37.3877 70.2803 37.6426 69.8877 38.1523C69.4951 38.6621 69.2988 39.3535 69.2988 40.2266ZM77.4727 40.6045V40.3232C77.4727 38.8936 77.8799 37.7539 78.6943 36.9043C79.5146 36.0547 80.6162 35.6299 81.999 35.6299C83.2998 35.6299 84.29 35.9609 84.9697 36.623C85.6494 37.2793 86.0068 38.0557 86.042 38.9521L86.0508 39.0752H83.8184V38.9785C83.8184 38.5273 83.6689 38.1465 83.3701 37.8359C83.0713 37.5195 82.6113 37.3613 81.9902 37.3613C81.2637 37.3613 80.7188 37.625 80.3555 38.1523C79.9922 38.6797 79.8105 39.3711 79.8105 40.2266V40.6924C79.8105 41.5479 79.9863 42.2422 80.3379 42.7754C80.6953 43.3086 81.2432 43.5752 81.9814 43.5752C82.6377 43.5752 83.1064 43.4111 83.3877 43.083C83.6748 42.7549 83.8184 42.374 83.8184 41.9404V41.8525H86.042V41.9492C86.042 42.8457 85.6934 43.6279 84.9961 44.2959C84.2988 44.9639 83.2998 45.2979 81.999 45.2979C80.6221 45.2979 79.5234 44.873 78.7031 44.0234C77.8828 43.168 77.4727 42.0283 77.4727 40.6045ZM86.7715 37.625V35.8936H94.6465V37.625H91.8516V45.043H89.5664V37.625H86.7715ZM97.9248 45.043H95.4814L98.0654 41.2285L100.351 41.3691L97.9248 45.043ZM101.59 45.043V41.8525H99.7529L99.375 41.7559C98.2324 41.7559 97.3535 41.4951 96.7383 40.9736C96.123 40.4463 95.8154 39.7373 95.8154 38.8467C95.8154 37.9502 96.123 37.2354 96.7383 36.7021C97.3535 36.1631 98.2324 35.8936 99.375 35.8936H103.884V45.043H101.59ZM99.7266 40.3057H101.59V37.4141H99.7266C99.1348 37.4141 98.7158 37.5518 98.4697 37.8271C98.2295 38.1025 98.1094 38.4512 98.1094 38.873C98.1094 39.2949 98.2295 39.6406 98.4697 39.9102C98.71 40.1738 99.1289 40.3057 99.7266 40.3057ZM106.213 35.8936H108.507V39.5059H111.97V35.8936H114.264V45.043H111.97V41.2373H108.507V45.043H106.213V35.8936ZM116.074 40.6045V40.3232C116.074 38.8936 116.481 37.7539 117.296 36.9043C118.116 36.0547 119.218 35.6299 120.601 35.6299C121.901 35.6299 122.892 35.9609 123.571 36.623C124.251 37.2793 124.608 38.0557 124.644 38.9521L124.652 39.0752H122.42V38.9785C122.42 38.5273 122.271 38.1465 121.972 37.8359C121.673 37.5195 121.213 37.3613 120.592 37.3613C119.865 37.3613 119.32 37.625 118.957 38.1523C118.594 38.6797 118.412 39.3711 118.412 40.2266V40.6924C118.412 41.5479 118.588 42.2422 118.939 42.7754C119.297 43.3086 119.845 43.5752 120.583 43.5752C121.239 43.5752 121.708 43.4111 121.989 43.083C122.276 42.7549 122.42 42.374 122.42 41.9404V41.8525H124.644V41.9492C124.644 42.8457 124.295 43.6279 123.598 44.2959C122.9 44.9639 121.901 45.2979 120.601 45.2979C119.224 45.2979 118.125 44.873 117.305 44.0234C116.484 43.168 116.074 42.0283 116.074 40.6045ZM132.29 45.043L129.082 40.9121L130.55 39.4004L134.971 45.043H132.29ZM127.43 39.4971H129.267L132.062 35.8848H134.575L130.409 41.2373H127.43V39.4971ZM128.563 35.8848V45.043H126.27V35.8848H128.563ZM135.445 42.3535C135.445 41.3691 135.829 40.6191 136.597 40.1035C137.364 39.5879 138.337 39.3301 139.515 39.3301H141.422V38.7676C141.422 38.3047 141.302 37.9326 141.062 37.6514C140.827 37.3701 140.417 37.2295 139.831 37.2295C139.245 37.2295 138.826 37.3467 138.574 37.5811C138.328 37.8154 138.205 38.0996 138.205 38.4336V38.5479H135.955V38.4336C135.955 37.6367 136.318 36.9717 137.045 36.4385C137.771 35.8994 138.729 35.6299 139.919 35.6299C141.114 35.6299 142.043 35.8877 142.705 36.4033C143.373 36.9189 143.707 37.71 143.707 38.7764V42.9688C143.707 43.3438 143.739 43.7012 143.804 44.041C143.868 44.375 143.956 44.6621 144.067 44.9023V45.043H141.826C141.75 44.9023 141.683 44.7207 141.624 44.498C141.565 44.2754 141.527 44.0557 141.51 43.8389C141.316 44.1963 140.971 44.5156 140.473 44.7969C139.975 45.0723 139.351 45.21 138.601 45.21C137.704 45.21 136.954 44.9697 136.351 44.4893C135.747 44.0088 135.445 43.2969 135.445 42.3535ZM137.739 42.1689C137.739 42.6143 137.865 42.9688 138.117 43.2324C138.375 43.4902 138.776 43.6191 139.321 43.6191C139.896 43.6191 140.388 43.4316 140.798 43.0566C141.214 42.6816 141.422 42.251 141.422 41.7646V40.7539H139.849C139.14 40.7539 138.609 40.8799 138.258 41.1318C137.912 41.3779 137.739 41.7236 137.739 42.1689ZM147.899 45.043H145.456L148.04 41.2285L150.325 41.3691L147.899 45.043ZM151.564 45.043V41.8525H149.728L149.35 41.7559C148.207 41.7559 147.328 41.4951 146.713 40.9736C146.098 40.4463 145.79 39.7373 145.79 38.8467C145.79 37.9502 146.098 37.2354 146.713 36.7021C147.328 36.1631 148.207 35.8936 149.35 35.8936H153.858V45.043H151.564ZM149.701 40.3057H151.564V37.4141H149.701C149.109 37.4141 148.69 37.5518 148.444 37.8271C148.204 38.1025 148.084 38.4512 148.084 38.873C148.084 39.2949 148.204 39.6406 148.444 39.9102C148.685 40.1738 149.104 40.3057 149.701 40.3057ZM170.101 47.583V45.043H161.646V47.583H159.457V43.2061H172.289V47.583H170.101ZM161.918 32.2461H170.733V45.043H168.369V34.083H163.887L163.623 39.0664C163.559 40.2969 163.444 41.2695 163.28 41.9844C163.122 42.6992 162.911 43.3086 162.647 43.8125H160.389C160.723 43.2383 160.98 42.5967 161.162 41.8877C161.344 41.1787 161.47 40.2148 161.54 38.9961L161.918 32.2461ZM173.186 42.3535C173.186 41.3691 173.569 40.6191 174.337 40.1035C175.104 39.5879 176.077 39.3301 177.255 39.3301H179.162V38.7676C179.162 38.3047 179.042 37.9326 178.802 37.6514C178.567 37.3701 178.157 37.2295 177.571 37.2295C176.985 37.2295 176.566 37.3467 176.314 37.5811C176.068 37.8154 175.945 38.0996 175.945 38.4336V38.5479H173.695V38.4336C173.695 37.6367 174.059 36.9717 174.785 36.4385C175.512 35.8994 176.47 35.6299 177.659 35.6299C178.854 35.6299 179.783 35.8877 180.445 36.4033C181.113 36.9189 181.447 37.71 181.447 38.7764V42.9688C181.447 43.3438 181.479 43.7012 181.544 44.041C181.608 44.375 181.696 44.6621 181.808 44.9023V45.043H179.566C179.49 44.9023 179.423 44.7207 179.364 44.498C179.306 44.2754 179.268 44.0557 179.25 43.8389C179.057 44.1963 178.711 44.5156 178.213 44.7969C177.715 45.0723 177.091 45.21 176.341 45.21C175.444 45.21 174.694 44.9697 174.091 44.4893C173.487 44.0088 173.186 43.2969 173.186 42.3535ZM175.479 42.1689C175.479 42.6143 175.605 42.9688 175.857 43.2324C176.115 43.4902 176.517 43.6191 177.062 43.6191C177.636 43.6191 178.128 43.4316 178.538 43.0566C178.954 42.6816 179.162 42.251 179.162 41.7646V40.7539H177.589C176.88 40.7539 176.35 40.8799 175.998 41.1318C175.652 41.3779 175.479 41.7236 175.479 42.1689ZM183.785 48.7168V35.8936H185.921L185.974 36.9834H186.026C186.231 36.6201 186.571 36.3184 187.046 36.0781C187.526 35.832 188.065 35.709 188.663 35.709C189.835 35.709 190.775 36.1309 191.484 36.9746C192.193 37.8184 192.548 38.9316 192.548 40.3145V40.5957C192.548 41.9785 192.196 43.0947 191.493 43.9443C190.79 44.7939 189.861 45.2188 188.707 45.2188C188.109 45.2188 187.582 45.1162 187.125 44.9111C186.668 44.7061 186.319 44.4248 186.079 44.0674V48.7168H183.785ZM186.079 42.0986C186.226 42.4619 186.478 42.7812 186.835 43.0566C187.192 43.332 187.617 43.4697 188.109 43.4697C188.824 43.4697 189.352 43.2178 189.691 42.7139C190.037 42.2041 190.21 41.5303 190.21 40.6924V40.2266C190.21 39.3887 190.037 38.7178 189.691 38.2139C189.352 37.71 188.821 37.458 188.101 37.458C187.597 37.458 187.172 37.5928 186.826 37.8623C186.48 38.1318 186.231 38.4453 186.079 38.8027V42.0986ZM196.661 35.8936V38.8906H198.718C199.878 38.8906 200.763 39.166 201.372 39.7168C201.981 40.2676 202.286 41.0205 202.286 41.9756C202.286 42.9424 201.981 43.6953 201.372 44.2344C200.763 44.7734 199.878 45.043 198.718 45.043H194.367V35.8936H196.661ZM198.384 40.499H196.661V43.4346H198.384C198.964 43.4346 199.377 43.3027 199.623 43.0391C199.875 42.7695 200.001 42.4062 200.001 41.9492C200.001 41.5098 199.878 41.1582 199.632 40.8945C199.386 40.6309 198.97 40.499 198.384 40.499ZM205.767 45.043H203.323L205.907 41.2285L208.192 41.3691L205.767 45.043ZM209.432 45.043V41.8525H207.595L207.217 41.7559C206.074 41.7559 205.195 41.4951 204.58 40.9736C203.965 40.4463 203.657 39.7373 203.657 38.8467C203.657 37.9502 203.965 37.2354 204.58 36.7021C205.195 36.1631 206.074 35.8936 207.217 35.8936H211.726V45.043H209.432ZM207.568 40.3057H209.432V37.4141H207.568C206.977 37.4141 206.558 37.5518 206.312 37.8271C206.071 38.1025 205.951 38.4512 205.951 38.873C205.951 39.2949 206.071 39.6406 206.312 39.9102C206.552 40.1738 206.971 40.3057 207.568 40.3057Z" fill="#04294A"/>
<rect width="21" height="21" rx="10.5" transform="matrix(-1 0 0 1 180 63.543)" fill="#F3F8F7"/>
<rect width="15" height="15" rx="7.5" transform="matrix(-1 0 0 1 155 88.543)" fill="#F3F8F7"/>
</svg>
