<svg width="250" height="110" viewBox="0 0 250 110" fill="none" xmlns="http://www.w3.org/2000/svg">
<path d="M250 38.543C250 17.5561 232.987 0.542969 212 0.542969H51C30.0132 0.542969 13 17.5561 13 38.543V38.543C13 59.5298 30.0132 76.543 51 76.543H212C232.987 76.543 250 59.5298 250 38.543V38.543Z" fill="#F3F8F7"/>
<path d="M40.8496 35.876C40.8496 36.8486 41.0605 37.502 41.4824 37.8359C41.9102 38.1641 42.6221 38.3281 43.6182 38.3281C44.2861 38.3281 44.9014 38.2988 45.4639 38.2402C46.0322 38.1816 46.6123 38.0908 47.2041 37.9678V39.7783C46.4014 39.9307 45.7129 40.0361 45.1387 40.0947C44.5645 40.1475 43.9258 40.1738 43.2227 40.1738C41.4766 40.1738 40.249 39.834 39.54 39.1543C38.8369 38.4688 38.4854 37.4199 38.4854 36.0078V32.2461H40.8496V35.876ZM48.3906 32.2461V45.043H46.0176V32.2461H48.3906ZM50.3945 40.6045V40.3232C50.3945 38.917 50.8047 37.7832 51.625 36.9219C52.4512 36.0605 53.5176 35.6299 54.8242 35.6299C56.1426 35.6299 57.168 36.0342 57.9004 36.8428C58.6328 37.6514 58.999 38.7617 58.999 40.1738V41H51.8887V39.5059H56.7314V39.3125C56.7314 38.7617 56.5674 38.293 56.2393 37.9062C55.917 37.5195 55.4512 37.3262 54.8418 37.3262C54.1328 37.3262 53.5967 37.5928 53.2334 38.126C52.8701 38.6592 52.6885 39.3564 52.6885 40.2178V40.6836C52.6885 41.5449 52.8818 42.2422 53.2686 42.7754C53.6553 43.3086 54.2383 43.5752 55.0176 43.5752C55.5332 43.5752 55.9785 43.4551 56.3535 43.2148C56.7285 42.9688 57.0332 42.6816 57.2676 42.3535L58.8672 43.3994C58.5801 43.9268 58.1055 44.3779 57.4434 44.7529C56.7812 45.1221 55.9814 45.3066 55.0439 45.3066C53.5791 45.3066 52.4365 44.876 51.6162 44.0146C50.8018 43.1475 50.3945 42.0107 50.3945 40.6045ZM60.2031 40.6045V40.3232C60.2031 38.8936 60.6104 37.7539 61.4248 36.9043C62.2451 36.0547 63.3467 35.6299 64.7295 35.6299C66.0303 35.6299 67.0205 35.9609 67.7002 36.623C68.3799 37.2793 68.7373 38.0557 68.7725 38.9521L68.7812 39.0752H66.5488V38.9785C66.5488 38.5273 66.3994 38.1465 66.1006 37.8359C65.8018 37.5195 65.3418 37.3613 64.7207 37.3613C63.9941 37.3613 63.4492 37.625 63.0859 38.1523C62.7227 38.6797 62.541 39.3711 62.541 40.2266V40.6924C62.541 41.5479 62.7168 42.2422 63.0684 42.7754C63.4258 43.3086 63.9736 43.5752 64.7119 43.5752C65.3682 43.5752 65.8369 43.4111 66.1182 43.083C66.4053 42.7549 66.5488 42.374 66.5488 41.9404V41.8525H68.7725V41.9492C68.7725 42.8457 68.4238 43.6279 67.7266 44.2959C67.0293 44.9639 66.0303 45.2979 64.7295 45.2979C63.3525 45.2979 62.2539 44.873 61.4336 44.0234C60.6133 43.168 60.2031 42.0283 60.2031 40.6045ZM70.3984 35.8936H72.6924V39.5059H76.1553V35.8936H78.4492V45.043H76.1553V41.2373H72.6924V45.043H70.3984V35.8936ZM80.2598 40.6045V40.3232C80.2598 38.9053 80.6816 37.7686 81.5254 36.9131C82.375 36.0576 83.4883 35.6299 84.8652 35.6299C86.2422 35.6299 87.3525 36.0576 88.1963 36.9131C89.04 37.7686 89.4619 38.9053 89.4619 40.3232V40.6045C89.4619 42.0225 89.04 43.1592 88.1963 44.0146C87.3525 44.8701 86.2422 45.2979 84.8652 45.2979C83.4883 45.2979 82.375 44.8701 81.5254 44.0146C80.6816 43.1592 80.2598 42.0225 80.2598 40.6045ZM82.5977 40.2266V40.6924C82.5977 41.5713 82.791 42.2656 83.1777 42.7754C83.5645 43.2852 84.127 43.54 84.8652 43.54C85.5977 43.54 86.1572 43.2852 86.5439 42.7754C86.9307 42.2656 87.124 41.5713 87.124 40.6924V40.2266C87.124 39.3535 86.9277 38.6621 86.5352 38.1523C86.1426 37.6426 85.5859 37.3877 84.8652 37.3877C84.1387 37.3877 83.5791 37.6426 83.1865 38.1523C82.7939 38.6621 82.5977 39.3535 82.5977 40.2266ZM97.3018 45.043L94.0938 40.9121L95.5615 39.4004L99.9824 45.043H97.3018ZM92.4414 39.4971H94.2783L97.0732 35.8848H99.5869L95.4209 41.2373H92.4414V39.4971ZM93.5752 35.8848V45.043H91.2812V35.8848H93.5752ZM100.422 40.6045V40.3232C100.422 38.9053 100.844 37.7686 101.688 36.9131C102.537 36.0576 103.65 35.6299 105.027 35.6299C106.404 35.6299 107.515 36.0576 108.358 36.9131C109.202 37.7686 109.624 38.9053 109.624 40.3232V40.6045C109.624 42.0225 109.202 43.1592 108.358 44.0146C107.515 44.8701 106.404 45.2979 105.027 45.2979C103.65 45.2979 102.537 44.8701 101.688 44.0146C100.844 43.1592 100.422 42.0225 100.422 40.6045ZM102.76 40.2266V40.6924C102.76 41.5713 102.953 42.2656 103.34 42.7754C103.727 43.2852 104.289 43.54 105.027 43.54C105.76 43.54 106.319 43.2852 106.706 42.7754C107.093 42.2656 107.286 41.5713 107.286 40.6924V40.2266C107.286 39.3535 107.09 38.6621 106.697 38.1523C106.305 37.6426 105.748 37.3877 105.027 37.3877C104.301 37.3877 103.741 37.6426 103.349 38.1523C102.956 38.6621 102.76 39.3535 102.76 40.2266ZM111.443 45.043V35.8936H115.873C116.992 35.8936 117.836 36.0898 118.404 36.4824C118.973 36.875 119.257 37.4609 119.257 38.2402C119.257 38.8027 119.096 39.2598 118.773 39.6113C118.451 39.957 118.015 40.1855 117.464 40.2969V40.3232C118.132 40.4229 118.65 40.6543 119.02 41.0176C119.389 41.375 119.573 41.8496 119.573 42.4414C119.573 43.2617 119.28 43.9004 118.694 44.3574C118.108 44.8145 117.276 45.043 116.198 45.043H111.443ZM113.702 39.6377H115.548C116.046 39.6377 116.403 39.5352 116.62 39.3301C116.843 39.125 116.954 38.835 116.954 38.46C116.954 38.1143 116.843 37.8477 116.62 37.6602C116.403 37.4727 116.046 37.3789 115.548 37.3789H113.702V39.6377ZM113.702 43.5488H115.803C116.318 43.5488 116.693 43.4375 116.928 43.2148C117.162 42.9922 117.279 42.6934 117.279 42.3184C117.279 41.9551 117.162 41.665 116.928 41.4482C116.699 41.2256 116.324 41.1143 115.803 41.1143H113.702V43.5488ZM121.059 42.3535C121.059 41.3691 121.442 40.6191 122.21 40.1035C122.978 39.5879 123.95 39.3301 125.128 39.3301H127.035V38.7676C127.035 38.3047 126.915 37.9326 126.675 37.6514C126.44 37.3701 126.03 37.2295 125.444 37.2295C124.858 37.2295 124.439 37.3467 124.188 37.5811C123.941 37.8154 123.818 38.0996 123.818 38.4336V38.5479H121.568V38.4336C121.568 37.6367 121.932 36.9717 122.658 36.4385C123.385 35.8994 124.343 35.6299 125.532 35.6299C126.728 35.6299 127.656 35.8877 128.318 36.4033C128.986 36.9189 129.32 37.71 129.32 38.7764V42.9688C129.32 43.3438 129.353 43.7012 129.417 44.041C129.481 44.375 129.569 44.6621 129.681 44.9023V45.043H127.439C127.363 44.9023 127.296 44.7207 127.237 44.498C127.179 44.2754 127.141 44.0557 127.123 43.8389C126.93 44.1963 126.584 44.5156 126.086 44.7969C125.588 45.0723 124.964 45.21 124.214 45.21C123.317 45.21 122.567 44.9697 121.964 44.4893C121.36 44.0088 121.059 43.2969 121.059 42.3535ZM123.353 42.1689C123.353 42.6143 123.479 42.9688 123.73 43.2324C123.988 43.4902 124.39 43.6191 124.935 43.6191C125.509 43.6191 126.001 43.4316 126.411 43.0566C126.827 42.6816 127.035 42.251 127.035 41.7646V40.7539H125.462C124.753 40.7539 124.223 40.8799 123.871 41.1318C123.525 41.3779 123.353 41.7236 123.353 42.1689ZM134.682 45.043L139.463 32.1846H141.889L146.723 45.043H144.218L140.904 35.7793C140.834 35.5801 140.775 35.3896 140.729 35.208C140.688 35.0264 140.646 34.8447 140.605 34.6631H140.535C140.5 34.8447 140.459 35.0293 140.412 35.2168C140.365 35.3984 140.307 35.5859 140.236 35.7793L136.923 45.043H134.682ZM137.178 42.0547L137.74 40.2793H143.515L144.086 42.0547H137.178ZM147.725 35.8936H150.019V39.5059H153.481V35.8936H155.775V45.043H153.481V41.2373H150.019V45.043H147.725V35.8936ZM157.621 42.3535C157.621 41.3691 158.005 40.6191 158.772 40.1035C159.54 39.5879 160.513 39.3301 161.69 39.3301H163.598V38.7676C163.598 38.3047 163.478 37.9326 163.237 37.6514C163.003 37.3701 162.593 37.2295 162.007 37.2295C161.421 37.2295 161.002 37.3467 160.75 37.5811C160.504 37.8154 160.381 38.0996 160.381 38.4336V38.5479H158.131V38.4336C158.131 37.6367 158.494 36.9717 159.221 36.4385C159.947 35.8994 160.905 35.6299 162.095 35.6299C163.29 35.6299 164.219 35.8877 164.881 36.4033C165.549 36.9189 165.883 37.71 165.883 38.7764V42.9688C165.883 43.3438 165.915 43.7012 165.979 44.041C166.044 44.375 166.132 44.6621 166.243 44.9023V45.043H164.002C163.926 44.9023 163.858 44.7207 163.8 44.498C163.741 44.2754 163.703 44.0557 163.686 43.8389C163.492 44.1963 163.146 44.5156 162.648 44.7969C162.15 45.0723 161.526 45.21 160.776 45.21C159.88 45.21 159.13 44.9697 158.526 44.4893C157.923 44.0088 157.621 43.2969 157.621 42.3535ZM159.915 42.1689C159.915 42.6143 160.041 42.9688 160.293 43.2324C160.551 43.4902 160.952 43.6191 161.497 43.6191C162.071 43.6191 162.563 43.4316 162.974 43.0566C163.39 42.6816 163.598 42.251 163.598 41.7646V40.7539H162.024C161.315 40.7539 160.785 40.8799 160.434 41.1318C160.088 41.3779 159.915 41.7236 159.915 42.1689ZM167.711 40.6045V40.3232C167.711 38.8936 168.118 37.7539 168.933 36.9043C169.753 36.0547 170.854 35.6299 172.237 35.6299C173.538 35.6299 174.528 35.9609 175.208 36.623C175.888 37.2793 176.245 38.0557 176.28 38.9521L176.289 39.0752H174.057V38.9785C174.057 38.5273 173.907 38.1465 173.608 37.8359C173.31 37.5195 172.85 37.3613 172.229 37.3613C171.502 37.3613 170.957 37.625 170.594 38.1523C170.23 38.6797 170.049 39.3711 170.049 40.2266V40.6924C170.049 41.5479 170.225 42.2422 170.576 42.7754C170.934 43.3086 171.481 43.5752 172.22 43.5752C172.876 43.5752 173.345 43.4111 173.626 43.083C173.913 42.7549 174.057 42.374 174.057 41.9404V41.8525H176.28V41.9492C176.28 42.8457 175.932 43.6279 175.234 44.2959C174.537 44.9639 173.538 45.2979 172.237 45.2979C170.86 45.2979 169.762 44.873 168.941 44.0234C168.121 43.168 167.711 42.0283 167.711 40.6045ZM177.01 37.625V35.8936H184.885V37.625H182.09V45.043H179.805V37.625H177.01ZM185.834 42.3535C185.834 41.3691 186.218 40.6191 186.985 40.1035C187.753 39.5879 188.726 39.3301 189.903 39.3301H191.811V38.7676C191.811 38.3047 191.69 37.9326 191.45 37.6514C191.216 37.3701 190.806 37.2295 190.22 37.2295C189.634 37.2295 189.215 37.3467 188.963 37.5811C188.717 37.8154 188.594 38.0996 188.594 38.4336V38.5479H186.344V38.4336C186.344 37.6367 186.707 36.9717 187.434 36.4385C188.16 35.8994 189.118 35.6299 190.308 35.6299C191.503 35.6299 192.432 35.8877 193.094 36.4033C193.762 36.9189 194.096 37.71 194.096 38.7764V42.9688C194.096 43.3438 194.128 43.7012 194.192 44.041C194.257 44.375 194.345 44.6621 194.456 44.9023V45.043H192.215C192.139 44.9023 192.071 44.7207 192.013 44.498C191.954 44.2754 191.916 44.0557 191.898 43.8389C191.705 44.1963 191.359 44.5156 190.861 44.7969C190.363 45.0723 189.739 45.21 188.989 45.21C188.093 45.21 187.343 44.9697 186.739 44.4893C186.136 44.0088 185.834 43.2969 185.834 42.3535ZM188.128 42.1689C188.128 42.6143 188.254 42.9688 188.506 43.2324C188.764 43.4902 189.165 43.6191 189.71 43.6191C190.284 43.6191 190.776 43.4316 191.187 43.0566C191.603 42.6816 191.811 42.251 191.811 41.7646V40.7539H190.237C189.528 40.7539 188.998 40.8799 188.646 41.1318C188.301 41.3779 188.128 41.7236 188.128 42.1689ZM195.924 40.6045V40.3232C195.924 38.8936 196.331 37.7539 197.146 36.9043C197.966 36.0547 199.067 35.6299 200.45 35.6299C201.751 35.6299 202.741 35.9609 203.421 36.623C204.101 37.2793 204.458 38.0557 204.493 38.9521L204.502 39.0752H202.27V38.9785C202.27 38.5273 202.12 38.1465 201.821 37.8359C201.522 37.5195 201.062 37.3613 200.441 37.3613C199.715 37.3613 199.17 37.625 198.807 38.1523C198.443 38.6797 198.262 39.3711 198.262 40.2266V40.6924C198.262 41.5479 198.438 42.2422 198.789 42.7754C199.146 43.3086 199.694 43.5752 200.433 43.5752C201.089 43.5752 201.558 43.4111 201.839 43.083C202.126 42.7549 202.27 42.374 202.27 41.9404V41.8525H204.493V41.9492C204.493 42.8457 204.145 43.6279 203.447 44.2959C202.75 44.9639 201.751 45.2979 200.45 45.2979C199.073 45.2979 197.975 44.873 197.154 44.0234C196.334 43.168 195.924 42.0283 195.924 40.6045ZM206.119 45.043V35.8936H208.396V40.7715C208.396 40.9531 208.393 41.1641 208.387 41.4043C208.381 41.6445 208.369 41.8525 208.352 42.0283H208.431C208.513 41.876 208.604 41.7119 208.703 41.5361C208.803 41.3604 208.914 41.1582 209.037 40.9297L212.034 35.8936H214.337V45.043H212.061V40.1387C212.061 39.957 212.063 39.749 212.069 39.5146C212.075 39.2744 212.084 39.0664 212.096 38.8906H211.99C211.914 39.0488 211.829 39.2158 211.735 39.3916C211.647 39.5615 211.542 39.7578 211.419 39.9805L208.422 45.043H206.119ZM218.521 45.043H216.077L218.661 41.2285L220.946 41.3691L218.521 45.043ZM222.186 45.043V41.8525H220.349L219.971 41.7559C218.828 41.7559 217.949 41.4951 217.334 40.9736C216.719 40.4463 216.411 39.7373 216.411 38.8467C216.411 37.9502 216.719 37.2354 217.334 36.7021C217.949 36.1631 218.828 35.8936 219.971 35.8936H224.479V45.043H222.186ZM220.322 40.3057H222.186V37.4141H220.322C219.73 37.4141 219.312 37.5518 219.065 37.8271C218.825 38.1025 218.705 38.4512 218.705 38.873C218.705 39.2949 218.825 39.6406 219.065 39.9102C219.306 40.1738 219.725 40.3057 220.322 40.3057Z" fill="#04294A"/>
<rect x="43" y="69.543" width="21" height="21" rx="10.5" fill="#F3F8F7"/>
<rect x="72" y="94.543" width="15" height="15" rx="7.5" fill="#F3F8F7"/>
</svg>
