<svg width="250" height="110" viewBox="0 0 250 110" fill="none" xmlns="http://www.w3.org/2000/svg">
<path d="M237 38.5425C237 17.5557 219.987 0.54248 199 0.54248H38C17.0132 0.54248 0 17.5557 0 38.5425V38.5425C0 59.5293 17.0132 76.5425 38 76.5425H199C219.987 76.5425 237 59.5293 237 38.5425V38.5425Z" fill="#04294A" fill-opacity="0.24"/>
<path d="M27.8496 35.8755C27.8496 36.8481 28.0605 37.5015 28.4824 37.8354C28.9102 38.1636 29.6221 38.3276 30.6182 38.3276C31.2861 38.3276 31.9014 38.2983 32.4639 38.2397C33.0322 38.1812 33.6123 38.0903 34.2041 37.9673V39.7778C33.4014 39.9302 32.7129 40.0356 32.1387 40.0942C31.5645 40.147 30.9258 40.1733 30.2227 40.1733C28.4766 40.1733 27.249 39.8335 26.54 39.1538C25.8369 38.4683 25.4854 37.4194 25.4854 36.0073V32.2456H27.8496V35.8755ZM35.3906 32.2456V45.0425H33.0176V32.2456H35.3906ZM37.3945 40.604V40.3228C37.3945 38.9165 37.8047 37.7827 38.625 36.9214C39.4512 36.0601 40.5176 35.6294 41.8242 35.6294C43.1426 35.6294 44.168 36.0337 44.9004 36.8423C45.6328 37.6509 45.999 38.7612 45.999 40.1733V40.9995H38.8887V39.5054H43.7314V39.312C43.7314 38.7612 43.5674 38.2925 43.2393 37.9058C42.917 37.519 42.4512 37.3257 41.8418 37.3257C41.1328 37.3257 40.5967 37.5923 40.2334 38.1255C39.8701 38.6587 39.6885 39.356 39.6885 40.2173V40.6831C39.6885 41.5444 39.8818 42.2417 40.2686 42.7749C40.6553 43.3081 41.2383 43.5747 42.0176 43.5747C42.5332 43.5747 42.9785 43.4546 43.3535 43.2144C43.7285 42.9683 44.0332 42.6812 44.2676 42.353L45.8672 43.3989C45.5801 43.9263 45.1055 44.3774 44.4434 44.7524C43.7812 45.1216 42.9814 45.3062 42.0439 45.3062C40.5791 45.3062 39.4365 44.8755 38.6162 44.0142C37.8018 43.147 37.3945 42.0103 37.3945 40.604ZM47.2031 40.604V40.3228C47.2031 38.8931 47.6104 37.7534 48.4248 36.9038C49.2451 36.0542 50.3467 35.6294 51.7295 35.6294C53.0303 35.6294 54.0205 35.9604 54.7002 36.6226C55.3799 37.2788 55.7373 38.0552 55.7725 38.9517L55.7812 39.0747H53.5488V38.978C53.5488 38.5269 53.3994 38.146 53.1006 37.8354C52.8018 37.519 52.3418 37.3608 51.7207 37.3608C50.9941 37.3608 50.4492 37.6245 50.0859 38.1519C49.7227 38.6792 49.541 39.3706 49.541 40.2261V40.6919C49.541 41.5474 49.7168 42.2417 50.0684 42.7749C50.4258 43.3081 50.9736 43.5747 51.7119 43.5747C52.3682 43.5747 52.8369 43.4106 53.1182 43.0825C53.4053 42.7544 53.5488 42.3735 53.5488 41.9399V41.8521H55.7725V41.9487C55.7725 42.8452 55.4238 43.6274 54.7266 44.2954C54.0293 44.9634 53.0303 45.2974 51.7295 45.2974C50.3525 45.2974 49.2539 44.8726 48.4336 44.0229C47.6133 43.1675 47.2031 42.0278 47.2031 40.604ZM57.3984 35.8931H59.6924V39.5054H63.1553V35.8931H65.4492V45.0425H63.1553V41.2368H59.6924V45.0425H57.3984V35.8931ZM67.2598 40.604V40.3228C67.2598 38.9048 67.6816 37.7681 68.5254 36.9126C69.375 36.0571 70.4883 35.6294 71.8652 35.6294C73.2422 35.6294 74.3525 36.0571 75.1963 36.9126C76.04 37.7681 76.4619 38.9048 76.4619 40.3228V40.604C76.4619 42.022 76.04 43.1587 75.1963 44.0142C74.3525 44.8696 73.2422 45.2974 71.8652 45.2974C70.4883 45.2974 69.375 44.8696 68.5254 44.0142C67.6816 43.1587 67.2598 42.022 67.2598 40.604ZM69.5977 40.2261V40.6919C69.5977 41.5708 69.791 42.2651 70.1777 42.7749C70.5645 43.2847 71.127 43.5396 71.8652 43.5396C72.5977 43.5396 73.1572 43.2847 73.5439 42.7749C73.9307 42.2651 74.124 41.5708 74.124 40.6919V40.2261C74.124 39.353 73.9277 38.6616 73.5352 38.1519C73.1426 37.6421 72.5859 37.3872 71.8652 37.3872C71.1387 37.3872 70.5791 37.6421 70.1865 38.1519C69.7939 38.6616 69.5977 39.353 69.5977 40.2261ZM84.3018 45.0425L81.0938 40.9116L82.5615 39.3999L86.9824 45.0425H84.3018ZM79.4414 39.4966H81.2783L84.0732 35.8843H86.5869L82.4209 41.2368H79.4414V39.4966ZM80.5752 35.8843V45.0425H78.2812V35.8843H80.5752ZM87.4219 40.604V40.3228C87.4219 38.9048 87.8438 37.7681 88.6875 36.9126C89.5371 36.0571 90.6504 35.6294 92.0273 35.6294C93.4043 35.6294 94.5146 36.0571 95.3584 36.9126C96.2021 37.7681 96.624 38.9048 96.624 40.3228V40.604C96.624 42.022 96.2021 43.1587 95.3584 44.0142C94.5146 44.8696 93.4043 45.2974 92.0273 45.2974C90.6504 45.2974 89.5371 44.8696 88.6875 44.0142C87.8438 43.1587 87.4219 42.022 87.4219 40.604ZM89.7598 40.2261V40.6919C89.7598 41.5708 89.9531 42.2651 90.3398 42.7749C90.7266 43.2847 91.2891 43.5396 92.0273 43.5396C92.7598 43.5396 93.3193 43.2847 93.7061 42.7749C94.0928 42.2651 94.2861 41.5708 94.2861 40.6919V40.2261C94.2861 39.353 94.0898 38.6616 93.6973 38.1519C93.3047 37.6421 92.748 37.3872 92.0273 37.3872C91.3008 37.3872 90.7412 37.6421 90.3486 38.1519C89.9561 38.6616 89.7598 39.353 89.7598 40.2261ZM98.4434 45.0425V35.8931H102.873C103.992 35.8931 104.836 36.0894 105.404 36.4819C105.973 36.8745 106.257 37.4604 106.257 38.2397C106.257 38.8022 106.096 39.2593 105.773 39.6108C105.451 39.9565 105.015 40.1851 104.464 40.2964V40.3228C105.132 40.4224 105.65 40.6538 106.02 41.0171C106.389 41.3745 106.573 41.8491 106.573 42.4409C106.573 43.2612 106.28 43.8999 105.694 44.3569C105.108 44.814 104.276 45.0425 103.198 45.0425H98.4434ZM100.702 39.6372H102.548C103.046 39.6372 103.403 39.5347 103.62 39.3296C103.843 39.1245 103.954 38.8345 103.954 38.4595C103.954 38.1138 103.843 37.8472 103.62 37.6597C103.403 37.4722 103.046 37.3784 102.548 37.3784H100.702V39.6372ZM100.702 43.5483H102.803C103.318 43.5483 103.693 43.437 103.928 43.2144C104.162 42.9917 104.279 42.6929 104.279 42.3179C104.279 41.9546 104.162 41.6646 103.928 41.4478C103.699 41.2251 103.324 41.1138 102.803 41.1138H100.702V43.5483ZM108.059 42.353C108.059 41.3687 108.442 40.6187 109.21 40.103C109.978 39.5874 110.95 39.3296 112.128 39.3296H114.035V38.7671C114.035 38.3042 113.915 37.9321 113.675 37.6509C113.44 37.3696 113.03 37.229 112.444 37.229C111.858 37.229 111.439 37.3462 111.188 37.5806C110.941 37.8149 110.818 38.0991 110.818 38.4331V38.5474H108.568V38.4331C108.568 37.6362 108.932 36.9712 109.658 36.438C110.385 35.8989 111.343 35.6294 112.532 35.6294C113.728 35.6294 114.656 35.8872 115.318 36.4028C115.986 36.9185 116.32 37.7095 116.32 38.7759V42.9683C116.32 43.3433 116.353 43.7007 116.417 44.0405C116.481 44.3745 116.569 44.6616 116.681 44.9019V45.0425H114.439C114.363 44.9019 114.296 44.7202 114.237 44.4976C114.179 44.2749 114.141 44.0552 114.123 43.8384C113.93 44.1958 113.584 44.5151 113.086 44.7964C112.588 45.0718 111.964 45.2095 111.214 45.2095C110.317 45.2095 109.567 44.9692 108.964 44.4888C108.36 44.0083 108.059 43.2964 108.059 42.353ZM110.353 42.1685C110.353 42.6138 110.479 42.9683 110.73 43.2319C110.988 43.4897 111.39 43.6187 111.935 43.6187C112.509 43.6187 113.001 43.4312 113.411 43.0562C113.827 42.6812 114.035 42.2505 114.035 41.7642V40.7534H112.462C111.753 40.7534 111.223 40.8794 110.871 41.1313C110.525 41.3774 110.353 41.7231 110.353 42.1685ZM121.682 45.0425L126.463 32.1841H128.889L133.723 45.0425H131.218L127.904 35.7788C127.834 35.5796 127.775 35.3892 127.729 35.2075C127.688 35.0259 127.646 34.8442 127.605 34.6626H127.535C127.5 34.8442 127.459 35.0288 127.412 35.2163C127.365 35.3979 127.307 35.5854 127.236 35.7788L123.923 45.0425H121.682ZM124.178 42.0542L124.74 40.2788H130.515L131.086 42.0542H124.178ZM134.725 35.8931H137.019V39.5054H140.481V35.8931H142.775V45.0425H140.481V41.2368H137.019V45.0425H134.725V35.8931ZM144.621 42.353C144.621 41.3687 145.005 40.6187 145.772 40.103C146.54 39.5874 147.513 39.3296 148.69 39.3296H150.598V38.7671C150.598 38.3042 150.478 37.9321 150.237 37.6509C150.003 37.3696 149.593 37.229 149.007 37.229C148.421 37.229 148.002 37.3462 147.75 37.5806C147.504 37.8149 147.381 38.0991 147.381 38.4331V38.5474H145.131V38.4331C145.131 37.6362 145.494 36.9712 146.221 36.438C146.947 35.8989 147.905 35.6294 149.095 35.6294C150.29 35.6294 151.219 35.8872 151.881 36.4028C152.549 36.9185 152.883 37.7095 152.883 38.7759V42.9683C152.883 43.3433 152.915 43.7007 152.979 44.0405C153.044 44.3745 153.132 44.6616 153.243 44.9019V45.0425H151.002C150.926 44.9019 150.858 44.7202 150.8 44.4976C150.741 44.2749 150.703 44.0552 150.686 43.8384C150.492 44.1958 150.146 44.5151 149.648 44.7964C149.15 45.0718 148.526 45.2095 147.776 45.2095C146.88 45.2095 146.13 44.9692 145.526 44.4888C144.923 44.0083 144.621 43.2964 144.621 42.353ZM146.915 42.1685C146.915 42.6138 147.041 42.9683 147.293 43.2319C147.551 43.4897 147.952 43.6187 148.497 43.6187C149.071 43.6187 149.563 43.4312 149.974 43.0562C150.39 42.6812 150.598 42.2505 150.598 41.7642V40.7534H149.024C148.315 40.7534 147.785 40.8794 147.434 41.1313C147.088 41.3774 146.915 41.7231 146.915 42.1685ZM154.711 40.604V40.3228C154.711 38.8931 155.118 37.7534 155.933 36.9038C156.753 36.0542 157.854 35.6294 159.237 35.6294C160.538 35.6294 161.528 35.9604 162.208 36.6226C162.888 37.2788 163.245 38.0552 163.28 38.9517L163.289 39.0747H161.057V38.978C161.057 38.5269 160.907 38.146 160.608 37.8354C160.31 37.519 159.85 37.3608 159.229 37.3608C158.502 37.3608 157.957 37.6245 157.594 38.1519C157.23 38.6792 157.049 39.3706 157.049 40.2261V40.6919C157.049 41.5474 157.225 42.2417 157.576 42.7749C157.934 43.3081 158.481 43.5747 159.22 43.5747C159.876 43.5747 160.345 43.4106 160.626 43.0825C160.913 42.7544 161.057 42.3735 161.057 41.9399V41.8521H163.28V41.9487C163.28 42.8452 162.932 43.6274 162.234 44.2954C161.537 44.9634 160.538 45.2974 159.237 45.2974C157.86 45.2974 156.762 44.8726 155.941 44.0229C155.121 43.1675 154.711 42.0278 154.711 40.604ZM164.01 37.6245V35.8931H171.885V37.6245H169.09V45.0425H166.805V37.6245H164.01ZM172.834 42.353C172.834 41.3687 173.218 40.6187 173.985 40.103C174.753 39.5874 175.726 39.3296 176.903 39.3296H178.811V38.7671C178.811 38.3042 178.69 37.9321 178.45 37.6509C178.216 37.3696 177.806 37.229 177.22 37.229C176.634 37.229 176.215 37.3462 175.963 37.5806C175.717 37.8149 175.594 38.0991 175.594 38.4331V38.5474H173.344V38.4331C173.344 37.6362 173.707 36.9712 174.434 36.438C175.16 35.8989 176.118 35.6294 177.308 35.6294C178.503 35.6294 179.432 35.8872 180.094 36.4028C180.762 36.9185 181.096 37.7095 181.096 38.7759V42.9683C181.096 43.3433 181.128 43.7007 181.192 44.0405C181.257 44.3745 181.345 44.6616 181.456 44.9019V45.0425H179.215C179.139 44.9019 179.071 44.7202 179.013 44.4976C178.954 44.2749 178.916 44.0552 178.898 43.8384C178.705 44.1958 178.359 44.5151 177.861 44.7964C177.363 45.0718 176.739 45.2095 175.989 45.2095C175.093 45.2095 174.343 44.9692 173.739 44.4888C173.136 44.0083 172.834 43.2964 172.834 42.353ZM175.128 42.1685C175.128 42.6138 175.254 42.9683 175.506 43.2319C175.764 43.4897 176.165 43.6187 176.71 43.6187C177.284 43.6187 177.776 43.4312 178.187 43.0562C178.603 42.6812 178.811 42.2505 178.811 41.7642V40.7534H177.237C176.528 40.7534 175.998 40.8794 175.646 41.1313C175.301 41.3774 175.128 41.7231 175.128 42.1685ZM182.924 40.604V40.3228C182.924 38.8931 183.331 37.7534 184.146 36.9038C184.966 36.0542 186.067 35.6294 187.45 35.6294C188.751 35.6294 189.741 35.9604 190.421 36.6226C191.101 37.2788 191.458 38.0552 191.493 38.9517L191.502 39.0747H189.27V38.978C189.27 38.5269 189.12 38.146 188.821 37.8354C188.522 37.519 188.062 37.3608 187.441 37.3608C186.715 37.3608 186.17 37.6245 185.807 38.1519C185.443 38.6792 185.262 39.3706 185.262 40.2261V40.6919C185.262 41.5474 185.438 42.2417 185.789 42.7749C186.146 43.3081 186.694 43.5747 187.433 43.5747C188.089 43.5747 188.558 43.4106 188.839 43.0825C189.126 42.7544 189.27 42.3735 189.27 41.9399V41.8521H191.493V41.9487C191.493 42.8452 191.145 43.6274 190.447 44.2954C189.75 44.9634 188.751 45.2974 187.45 45.2974C186.073 45.2974 184.975 44.8726 184.154 44.0229C183.334 43.1675 182.924 42.0278 182.924 40.604ZM193.119 45.0425V35.8931H195.396V40.771C195.396 40.9526 195.393 41.1636 195.387 41.4038C195.381 41.644 195.369 41.8521 195.352 42.0278H195.431C195.513 41.8755 195.604 41.7114 195.703 41.5356C195.803 41.3599 195.914 41.1577 196.037 40.9292L199.034 35.8931H201.337V45.0425H199.061V40.1382C199.061 39.9565 199.063 39.7485 199.069 39.5142C199.075 39.2739 199.084 39.0659 199.096 38.8901H198.99C198.914 39.0483 198.829 39.2153 198.735 39.3911C198.647 39.561 198.542 39.7573 198.419 39.98L195.422 45.0425H193.119ZM205.521 45.0425H203.077L205.661 41.228L207.946 41.3687L205.521 45.0425ZM209.186 45.0425V41.8521H207.349L206.971 41.7554C205.828 41.7554 204.949 41.4946 204.334 40.9731C203.719 40.4458 203.411 39.7368 203.411 38.8462C203.411 37.9497 203.719 37.2349 204.334 36.7017C204.949 36.1626 205.828 35.8931 206.971 35.8931H211.479V45.0425H209.186ZM207.322 40.3052H209.186V37.4136H207.322C206.73 37.4136 206.312 37.5513 206.065 37.8267C205.825 38.1021 205.705 38.4507 205.705 38.8726C205.705 39.2944 205.825 39.6401 206.065 39.9097C206.306 40.1733 206.725 40.3052 207.322 40.3052Z" fill="#04294A"/>
<rect x="30" y="69.5425" width="21" height="21" rx="10.5" fill="#BAC6CD"/>
<rect x="59" y="94.5425" width="15" height="15" rx="7.5" fill="#BAC6CD"/>
</svg>
