<svg width="250" height="104" viewBox="0 0 250 104" fill="none" xmlns="http://www.w3.org/2000/svg">
<path d="M0 38.543C0 17.5561 17.0132 0.542969 38 0.542969H164C184.987 0.542969 202 17.5561 202 38.543V38.543C202 59.5298 184.987 76.543 164 76.543H38C17.0132 76.543 0 59.5298 0 38.543V38.543Z" fill="#F3F8F7"/>
<path d="M31.6543 45.043V32.2461H33.9658V45.043H31.6543ZM38.8174 45.043L34.4756 38.8994L36.4355 37.6777L41.6299 45.043H38.8174ZM32.8145 37.5371H34.8008L38.5889 32.2461H41.1377L35.7324 39.3652H32.8145V37.5371ZM24.0957 45.043L29.3076 37.6865L31.1533 38.8994L26.8115 45.043H24.0957ZM32.8145 37.5371V39.3652H29.7822L24.3945 32.2461H27.0225L30.8105 37.5371H32.8145ZM41.999 42.3535C41.999 41.3691 42.3828 40.6191 43.1504 40.1035C43.918 39.5879 44.8906 39.3301 46.0684 39.3301H47.9756V38.7676C47.9756 38.3047 47.8555 37.9326 47.6152 37.6514C47.3809 37.3701 46.9707 37.2295 46.3848 37.2295C45.7988 37.2295 45.3799 37.3467 45.1279 37.5811C44.8818 37.8154 44.7588 38.0996 44.7588 38.4336V38.5479H42.5088V38.4336C42.5088 37.6367 42.8721 36.9717 43.5986 36.4385C44.3252 35.8994 45.2832 35.6299 46.4727 35.6299C47.668 35.6299 48.5967 35.8877 49.2588 36.4033C49.9268 36.9189 50.2607 37.71 50.2607 38.7764V42.9688C50.2607 43.3438 50.293 43.7012 50.3574 44.041C50.4219 44.375 50.5098 44.6621 50.6211 44.9023V45.043H48.3799C48.3037 44.9023 48.2363 44.7207 48.1777 44.498C48.1191 44.2754 48.0811 44.0557 48.0635 43.8389C47.8701 44.1963 47.5244 44.5156 47.0264 44.7969C46.5283 45.0723 45.9043 45.21 45.1543 45.21C44.2578 45.21 43.5078 44.9697 42.9043 44.4893C42.3008 44.0088 41.999 43.2969 41.999 42.3535ZM44.293 42.1689C44.293 42.6143 44.4189 42.9688 44.6709 43.2324C44.9287 43.4902 45.3301 43.6191 45.875 43.6191C46.4492 43.6191 46.9414 43.4316 47.3516 43.0566C47.7676 42.6816 47.9756 42.251 47.9756 41.7646V40.7539H46.4023C45.6934 40.7539 45.1631 40.8799 44.8115 41.1318C44.4658 41.3779 44.293 41.7236 44.293 42.1689ZM59.6562 47.416V45.043H53.6533V47.416H51.5264V43.3115H61.792V47.416H59.6562ZM55.3057 37.625L55.1914 40.2266C55.1562 41.0176 55.0977 41.665 55.0156 42.1689C54.9336 42.667 54.8135 43.0977 54.6553 43.4609H52.4053C52.6104 43.1445 52.7773 42.6992 52.9062 42.125C53.0352 41.5449 53.1201 40.748 53.1611 39.7344L53.3281 35.8936H60.4473V45.043H58.1533V37.625H55.3057ZM62.6182 42.3535C62.6182 41.3691 63.002 40.6191 63.7695 40.1035C64.5371 39.5879 65.5098 39.3301 66.6875 39.3301H68.5947V38.7676C68.5947 38.3047 68.4746 37.9326 68.2344 37.6514C68 37.3701 67.5898 37.2295 67.0039 37.2295C66.418 37.2295 65.999 37.3467 65.7471 37.5811C65.501 37.8154 65.3779 38.0996 65.3779 38.4336V38.5479H63.1279V38.4336C63.1279 37.6367 63.4912 36.9717 64.2178 36.4385C64.9443 35.8994 65.9023 35.6299 67.0918 35.6299C68.2871 35.6299 69.2158 35.8877 69.8779 36.4033C70.5459 36.9189 70.8799 37.71 70.8799 38.7764V42.9688C70.8799 43.3438 70.9121 43.7012 70.9766 44.041C71.041 44.375 71.1289 44.6621 71.2402 44.9023V45.043H68.999C68.9229 44.9023 68.8555 44.7207 68.7969 44.498C68.7383 44.2754 68.7002 44.0557 68.6826 43.8389C68.4893 44.1963 68.1436 44.5156 67.6455 44.7969C67.1475 45.0723 66.5234 45.21 65.7734 45.21C64.877 45.21 64.127 44.9697 63.5234 44.4893C62.9199 44.0088 62.6182 43.2969 62.6182 42.3535ZM64.9121 42.1689C64.9121 42.6143 65.0381 42.9688 65.29 43.2324C65.5479 43.4902 65.9492 43.6191 66.4941 43.6191C67.0684 43.6191 67.5605 43.4316 67.9707 43.0566C68.3867 42.6816 68.5947 42.251 68.5947 41.7646V40.7539H67.0215C66.3125 40.7539 65.7822 40.8799 65.4307 41.1318C65.085 41.3779 64.9121 41.7236 64.9121 42.1689ZM73.2178 35.8936H75.5117V39.5059H78.9746V35.8936H81.2686V45.043H78.9746V41.2373H75.5117V45.043H73.2178V35.8936ZM86.6123 45.043L91.3936 32.1846H93.8193L98.6533 45.043H96.1484L92.835 35.7793C92.7646 35.5801 92.7061 35.3896 92.6592 35.208C92.6182 35.0264 92.5771 34.8447 92.5361 34.6631H92.4658C92.4307 34.8447 92.3896 35.0293 92.3428 35.2168C92.2959 35.3984 92.2373 35.5859 92.167 35.7793L88.8535 45.043H86.6123ZM89.1084 42.0547L89.6709 40.2793H95.4453L96.0166 42.0547H89.1084ZM99.6553 35.8936H101.949V39.5059H105.412V35.8936H107.706V45.043H105.412V41.2373H101.949V45.043H99.6553V35.8936ZM109.552 42.3535C109.552 41.3691 109.936 40.6191 110.703 40.1035C111.471 39.5879 112.443 39.3301 113.621 39.3301H115.528V38.7676C115.528 38.3047 115.408 37.9326 115.168 37.6514C114.934 37.3701 114.523 37.2295 113.938 37.2295C113.352 37.2295 112.933 37.3467 112.681 37.5811C112.435 37.8154 112.312 38.0996 112.312 38.4336V38.5479H110.062V38.4336C110.062 37.6367 110.425 36.9717 111.151 36.4385C111.878 35.8994 112.836 35.6299 114.025 35.6299C115.221 35.6299 116.149 35.8877 116.812 36.4033C117.479 36.9189 117.813 37.71 117.813 38.7764V42.9688C117.813 43.3438 117.846 43.7012 117.91 44.041C117.975 44.375 118.062 44.6621 118.174 44.9023V45.043H115.933C115.856 44.9023 115.789 44.7207 115.73 44.498C115.672 44.2754 115.634 44.0557 115.616 43.8389C115.423 44.1963 115.077 44.5156 114.579 44.7969C114.081 45.0723 113.457 45.21 112.707 45.21C111.811 45.21 111.061 44.9697 110.457 44.4893C109.854 44.0088 109.552 43.2969 109.552 42.3535ZM111.846 42.1689C111.846 42.6143 111.972 42.9688 112.224 43.2324C112.481 43.4902 112.883 43.6191 113.428 43.6191C114.002 43.6191 114.494 43.4316 114.904 43.0566C115.32 42.6816 115.528 42.251 115.528 41.7646V40.7539H113.955C113.246 40.7539 112.716 40.8799 112.364 41.1318C112.019 41.3779 111.846 41.7236 111.846 42.1689ZM119.642 40.6045V40.3232C119.642 38.8936 120.049 37.7539 120.863 36.9043C121.684 36.0547 122.785 35.6299 124.168 35.6299C125.469 35.6299 126.459 35.9609 127.139 36.623C127.818 37.2793 128.176 38.0557 128.211 38.9521L128.22 39.0752H125.987V38.9785C125.987 38.5273 125.838 38.1465 125.539 37.8359C125.24 37.5195 124.78 37.3613 124.159 37.3613C123.433 37.3613 122.888 37.625 122.524 38.1523C122.161 38.6797 121.979 39.3711 121.979 40.2266V40.6924C121.979 41.5479 122.155 42.2422 122.507 42.7754C122.864 43.3086 123.412 43.5752 124.15 43.5752C124.807 43.5752 125.275 43.4111 125.557 43.083C125.844 42.7549 125.987 42.374 125.987 41.9404V41.8525H128.211V41.9492C128.211 42.8457 127.862 43.6279 127.165 44.2959C126.468 44.9639 125.469 45.2979 124.168 45.2979C122.791 45.2979 121.692 44.873 120.872 44.0234C120.052 43.168 119.642 42.0283 119.642 40.6045ZM128.94 37.625V35.8936H136.815V37.625H134.021V45.043H131.735V37.625H128.94ZM137.765 42.3535C137.765 41.3691 138.148 40.6191 138.916 40.1035C139.684 39.5879 140.656 39.3301 141.834 39.3301H143.741V38.7676C143.741 38.3047 143.621 37.9326 143.381 37.6514C143.146 37.3701 142.736 37.2295 142.15 37.2295C141.564 37.2295 141.146 37.3467 140.894 37.5811C140.647 37.8154 140.524 38.0996 140.524 38.4336V38.5479H138.274V38.4336C138.274 37.6367 138.638 36.9717 139.364 36.4385C140.091 35.8994 141.049 35.6299 142.238 35.6299C143.434 35.6299 144.362 35.8877 145.024 36.4033C145.692 36.9189 146.026 37.71 146.026 38.7764V42.9688C146.026 43.3438 146.059 43.7012 146.123 44.041C146.188 44.375 146.275 44.6621 146.387 44.9023V45.043H144.146C144.069 44.9023 144.002 44.7207 143.943 44.498C143.885 44.2754 143.847 44.0557 143.829 43.8389C143.636 44.1963 143.29 44.5156 142.792 44.7969C142.294 45.0723 141.67 45.21 140.92 45.21C140.023 45.21 139.273 44.9697 138.67 44.4893C138.066 44.0088 137.765 43.2969 137.765 42.3535ZM140.059 42.1689C140.059 42.6143 140.185 42.9688 140.437 43.2324C140.694 43.4902 141.096 43.6191 141.641 43.6191C142.215 43.6191 142.707 43.4316 143.117 43.0566C143.533 42.6816 143.741 42.251 143.741 41.7646V40.7539H142.168C141.459 40.7539 140.929 40.8799 140.577 41.1318C140.231 41.3779 140.059 41.7236 140.059 42.1689ZM147.854 40.6045V40.3232C147.854 38.8936 148.262 37.7539 149.076 36.9043C149.896 36.0547 150.998 35.6299 152.381 35.6299C153.682 35.6299 154.672 35.9609 155.352 36.623C156.031 37.2793 156.389 38.0557 156.424 38.9521L156.433 39.0752H154.2V38.9785C154.2 38.5273 154.051 38.1465 153.752 37.8359C153.453 37.5195 152.993 37.3613 152.372 37.3613C151.646 37.3613 151.101 37.625 150.737 38.1523C150.374 38.6797 150.192 39.3711 150.192 40.2266V40.6924C150.192 41.5479 150.368 42.2422 150.72 42.7754C151.077 43.3086 151.625 43.5752 152.363 43.5752C153.02 43.5752 153.488 43.4111 153.77 43.083C154.057 42.7549 154.2 42.374 154.2 41.9404V41.8525H156.424V41.9492C156.424 42.8457 156.075 43.6279 155.378 44.2959C154.681 44.9639 153.682 45.2979 152.381 45.2979C151.004 45.2979 149.905 44.873 149.085 44.0234C148.265 43.168 147.854 42.0283 147.854 40.6045ZM158.05 45.043V35.8936H160.326V40.7715C160.326 40.9531 160.323 41.1641 160.317 41.4043C160.312 41.6445 160.3 41.8525 160.282 42.0283H160.361C160.443 41.876 160.534 41.7119 160.634 41.5361C160.733 41.3604 160.845 41.1582 160.968 40.9297L163.965 35.8936H166.268V45.043H163.991V40.1387C163.991 39.957 163.994 39.749 164 39.5146C164.006 39.2744 164.015 39.0664 164.026 38.8906H163.921C163.845 39.0488 163.76 39.2158 163.666 39.3916C163.578 39.5615 163.473 39.7578 163.35 39.9805L160.353 45.043H158.05ZM170.451 45.043H168.008L170.592 41.2285L172.877 41.3691L170.451 45.043ZM174.116 45.043V41.8525H172.279L171.901 41.7559C170.759 41.7559 169.88 41.4951 169.265 40.9736C168.649 40.4463 168.342 39.7373 168.342 38.8467C168.342 37.9502 168.649 37.2354 169.265 36.7021C169.88 36.1631 170.759 35.8936 171.901 35.8936H176.41V45.043H174.116ZM172.253 40.3057H174.116V37.4141H172.253C171.661 37.4141 171.242 37.5518 170.996 37.8271C170.756 38.1025 170.636 38.4512 170.636 38.873C170.636 39.2949 170.756 39.6406 170.996 39.9102C171.236 40.1738 171.655 40.3057 172.253 40.3057Z" fill="#04294A"/>
<rect width="21" height="21" rx="10.5" transform="matrix(-1 0 0 1 170 63.543)" fill="#F3F8F7"/>
<rect width="15" height="15" rx="7.5" transform="matrix(-1 0 0 1 145 88.543)" fill="#F3F8F7"/>
</svg>
