<svg width="250" height="104" viewBox="0 0 250 104" fill="none" xmlns="http://www.w3.org/2000/svg">
<rect y="0.54248" width="237" height="76" rx="38" fill="#04294A" fill-opacity="0.24"/>
<path d="M24.123 45.0425L28.7021 37.8442H29.0537L32.3936 32.2456H34.793L30.4863 39.2065H30.1436L26.5752 45.0425H24.123ZM24.3252 32.2456L27.0234 32.2544L30.4072 37.8354H30.4512L35.0918 45.0425H32.3672L28.79 39.2505H28.7461L24.3252 32.2456ZM36.2871 45.0425V35.8931H40.7168C41.8359 35.8931 42.6797 36.0894 43.248 36.4819C43.8164 36.8745 44.1006 37.4604 44.1006 38.2397C44.1006 38.8022 43.9395 39.2593 43.6172 39.6108C43.2949 39.9565 42.8584 40.1851 42.3076 40.2964V40.3228C42.9756 40.4224 43.4941 40.6538 43.8633 41.0171C44.2324 41.3745 44.417 41.8491 44.417 42.4409C44.417 43.2612 44.124 43.8999 43.5381 44.3569C42.9521 44.814 42.1201 45.0425 41.042 45.0425H36.2871ZM38.5459 39.6372H40.3916C40.8896 39.6372 41.2471 39.5347 41.4639 39.3296C41.6865 39.1245 41.7979 38.8345 41.7979 38.4595C41.7979 38.1138 41.6865 37.8472 41.4639 37.6597C41.2471 37.4722 40.8896 37.3784 40.3916 37.3784H38.5459V39.6372ZM38.5459 43.5483H40.6465C41.1621 43.5483 41.5371 43.437 41.7715 43.2144C42.0059 42.9917 42.123 42.6929 42.123 42.3179C42.123 41.9546 42.0059 41.6646 41.7715 41.4478C41.543 41.2251 41.168 41.1138 40.6465 41.1138H38.5459V43.5483ZM45.8672 40.604V40.3228C45.8672 38.9048 46.2891 37.7681 47.1328 36.9126C47.9824 36.0571 49.0957 35.6294 50.4727 35.6294C51.8496 35.6294 52.96 36.0571 53.8037 36.9126C54.6475 37.7681 55.0693 38.9048 55.0693 40.3228V40.604C55.0693 42.022 54.6475 43.1587 53.8037 44.0142C52.96 44.8696 51.8496 45.2974 50.4727 45.2974C49.0957 45.2974 47.9824 44.8696 47.1328 44.0142C46.2891 43.1587 45.8672 42.022 45.8672 40.604ZM48.2051 40.2261V40.6919C48.2051 41.5708 48.3984 42.2651 48.7852 42.7749C49.1719 43.2847 49.7344 43.5396 50.4727 43.5396C51.2051 43.5396 51.7646 43.2847 52.1514 42.7749C52.5381 42.2651 52.7314 41.5708 52.7314 40.6919V40.2261C52.7314 39.353 52.5352 38.6616 52.1426 38.1519C51.75 37.6421 51.1934 37.3872 50.4727 37.3872C49.7461 37.3872 49.1865 37.6421 48.7939 38.1519C48.4014 38.6616 48.2051 39.353 48.2051 40.2261ZM56.8887 48.7163V35.8931H59.0244L59.0771 36.9829H59.1299C59.335 36.6196 59.6748 36.3179 60.1494 36.0776C60.6299 35.8315 61.1689 35.7085 61.7666 35.7085C62.9385 35.7085 63.8789 36.1304 64.5879 36.9741C65.2969 37.8179 65.6514 38.9312 65.6514 40.314V40.5952C65.6514 41.978 65.2998 43.0942 64.5967 43.9438C63.8936 44.7935 62.9648 45.2183 61.8105 45.2183C61.2129 45.2183 60.6855 45.1157 60.2285 44.9106C59.7715 44.7056 59.4229 44.4243 59.1826 44.0669V48.7163H56.8887ZM59.1826 42.0981C59.3291 42.4614 59.5811 42.7808 59.9385 43.0562C60.2959 43.3315 60.7207 43.4692 61.2129 43.4692C61.9277 43.4692 62.4551 43.2173 62.7949 42.7134C63.1406 42.2036 63.3135 41.5298 63.3135 40.6919V40.2261C63.3135 39.3882 63.1406 38.7173 62.7949 38.2134C62.4551 37.7095 61.9248 37.4575 61.2041 37.4575C60.7002 37.4575 60.2754 37.5923 59.9297 37.8618C59.584 38.1313 59.335 38.4448 59.1826 38.8022V42.0981ZM66.9609 40.604V40.3228C66.9609 38.9048 67.3828 37.7681 68.2266 36.9126C69.0762 36.0571 70.1895 35.6294 71.5664 35.6294C72.9434 35.6294 74.0537 36.0571 74.8975 36.9126C75.7412 37.7681 76.1631 38.9048 76.1631 40.3228V40.604C76.1631 42.022 75.7412 43.1587 74.8975 44.0142C74.0537 44.8696 72.9434 45.2974 71.5664 45.2974C70.1895 45.2974 69.0762 44.8696 68.2266 44.0142C67.3828 43.1587 66.9609 42.022 66.9609 40.604ZM69.2988 40.2261V40.6919C69.2988 41.5708 69.4922 42.2651 69.8789 42.7749C70.2656 43.2847 70.8281 43.5396 71.5664 43.5396C72.2988 43.5396 72.8584 43.2847 73.2451 42.7749C73.6318 42.2651 73.8252 41.5708 73.8252 40.6919V40.2261C73.8252 39.353 73.6289 38.6616 73.2363 38.1519C72.8438 37.6421 72.2871 37.3872 71.5664 37.3872C70.8398 37.3872 70.2803 37.6421 69.8877 38.1519C69.4951 38.6616 69.2988 39.353 69.2988 40.2261ZM77.4727 40.604V40.3228C77.4727 38.8931 77.8799 37.7534 78.6943 36.9038C79.5146 36.0542 80.6162 35.6294 81.999 35.6294C83.2998 35.6294 84.29 35.9604 84.9697 36.6226C85.6494 37.2788 86.0068 38.0552 86.042 38.9517L86.0508 39.0747H83.8184V38.978C83.8184 38.5269 83.6689 38.146 83.3701 37.8354C83.0713 37.519 82.6113 37.3608 81.9902 37.3608C81.2637 37.3608 80.7188 37.6245 80.3555 38.1519C79.9922 38.6792 79.8105 39.3706 79.8105 40.2261V40.6919C79.8105 41.5474 79.9863 42.2417 80.3379 42.7749C80.6953 43.3081 81.2432 43.5747 81.9814 43.5747C82.6377 43.5747 83.1064 43.4106 83.3877 43.0825C83.6748 42.7544 83.8184 42.3735 83.8184 41.9399V41.8521H86.042V41.9487C86.042 42.8452 85.6934 43.6274 84.9961 44.2954C84.2988 44.9634 83.2998 45.2974 81.999 45.2974C80.6221 45.2974 79.5234 44.8726 78.7031 44.0229C77.8828 43.1675 77.4727 42.0278 77.4727 40.604ZM86.7715 37.6245V35.8931H94.6465V37.6245H91.8516V45.0425H89.5664V37.6245H86.7715ZM97.9248 45.0425H95.4814L98.0654 41.228L100.351 41.3687L97.9248 45.0425ZM101.59 45.0425V41.8521H99.7529L99.375 41.7554C98.2324 41.7554 97.3535 41.4946 96.7383 40.9731C96.123 40.4458 95.8154 39.7368 95.8154 38.8462C95.8154 37.9497 96.123 37.2349 96.7383 36.7017C97.3535 36.1626 98.2324 35.8931 99.375 35.8931H103.884V45.0425H101.59ZM99.7266 40.3052H101.59V37.4136H99.7266C99.1348 37.4136 98.7158 37.5513 98.4697 37.8267C98.2295 38.1021 98.1094 38.4507 98.1094 38.8726C98.1094 39.2944 98.2295 39.6401 98.4697 39.9097C98.71 40.1733 99.1289 40.3052 99.7266 40.3052ZM106.213 35.8931H108.507V39.5054H111.97V35.8931H114.264V45.0425H111.97V41.2368H108.507V45.0425H106.213V35.8931ZM116.074 40.604V40.3228C116.074 38.8931 116.481 37.7534 117.296 36.9038C118.116 36.0542 119.218 35.6294 120.601 35.6294C121.901 35.6294 122.892 35.9604 123.571 36.6226C124.251 37.2788 124.608 38.0552 124.644 38.9517L124.652 39.0747H122.42V38.978C122.42 38.5269 122.271 38.146 121.972 37.8354C121.673 37.519 121.213 37.3608 120.592 37.3608C119.865 37.3608 119.32 37.6245 118.957 38.1519C118.594 38.6792 118.412 39.3706 118.412 40.2261V40.6919C118.412 41.5474 118.588 42.2417 118.939 42.7749C119.297 43.3081 119.845 43.5747 120.583 43.5747C121.239 43.5747 121.708 43.4106 121.989 43.0825C122.276 42.7544 122.42 42.3735 122.42 41.9399V41.8521H124.644V41.9487C124.644 42.8452 124.295 43.6274 123.598 44.2954C122.9 44.9634 121.901 45.2974 120.601 45.2974C119.224 45.2974 118.125 44.8726 117.305 44.0229C116.484 43.1675 116.074 42.0278 116.074 40.604ZM132.29 45.0425L129.082 40.9116L130.55 39.3999L134.971 45.0425H132.29ZM127.43 39.4966H129.267L132.062 35.8843H134.575L130.409 41.2368H127.43V39.4966ZM128.563 35.8843V45.0425H126.27V35.8843H128.563ZM135.445 42.353C135.445 41.3687 135.829 40.6187 136.597 40.103C137.364 39.5874 138.337 39.3296 139.515 39.3296H141.422V38.7671C141.422 38.3042 141.302 37.9321 141.062 37.6509C140.827 37.3696 140.417 37.229 139.831 37.229C139.245 37.229 138.826 37.3462 138.574 37.5806C138.328 37.8149 138.205 38.0991 138.205 38.4331V38.5474H135.955V38.4331C135.955 37.6362 136.318 36.9712 137.045 36.438C137.771 35.8989 138.729 35.6294 139.919 35.6294C141.114 35.6294 142.043 35.8872 142.705 36.4028C143.373 36.9185 143.707 37.7095 143.707 38.7759V42.9683C143.707 43.3433 143.739 43.7007 143.804 44.0405C143.868 44.3745 143.956 44.6616 144.067 44.9019V45.0425H141.826C141.75 44.9019 141.683 44.7202 141.624 44.4976C141.565 44.2749 141.527 44.0552 141.51 43.8384C141.316 44.1958 140.971 44.5151 140.473 44.7964C139.975 45.0718 139.351 45.2095 138.601 45.2095C137.704 45.2095 136.954 44.9692 136.351 44.4888C135.747 44.0083 135.445 43.2964 135.445 42.353ZM137.739 42.1685C137.739 42.6138 137.865 42.9683 138.117 43.2319C138.375 43.4897 138.776 43.6187 139.321 43.6187C139.896 43.6187 140.388 43.4312 140.798 43.0562C141.214 42.6812 141.422 42.2505 141.422 41.7642V40.7534H139.849C139.14 40.7534 138.609 40.8794 138.258 41.1313C137.912 41.3774 137.739 41.7231 137.739 42.1685ZM147.899 45.0425H145.456L148.04 41.228L150.325 41.3687L147.899 45.0425ZM151.564 45.0425V41.8521H149.728L149.35 41.7554C148.207 41.7554 147.328 41.4946 146.713 40.9731C146.098 40.4458 145.79 39.7368 145.79 38.8462C145.79 37.9497 146.098 37.2349 146.713 36.7017C147.328 36.1626 148.207 35.8931 149.35 35.8931H153.858V45.0425H151.564ZM149.701 40.3052H151.564V37.4136H149.701C149.109 37.4136 148.69 37.5513 148.444 37.8267C148.204 38.1021 148.084 38.4507 148.084 38.8726C148.084 39.2944 148.204 39.6401 148.444 39.9097C148.685 40.1733 149.104 40.3052 149.701 40.3052ZM170.101 47.5825V45.0425H161.646V47.5825H159.457V43.2056H172.289V47.5825H170.101ZM161.918 32.2456H170.733V45.0425H168.369V34.0825H163.887L163.623 39.0659C163.559 40.2964 163.444 41.269 163.28 41.9839C163.122 42.6987 162.911 43.3081 162.647 43.812H160.389C160.723 43.2378 160.98 42.5962 161.162 41.8872C161.344 41.1782 161.47 40.2144 161.54 38.9956L161.918 32.2456ZM173.186 42.353C173.186 41.3687 173.569 40.6187 174.337 40.103C175.104 39.5874 176.077 39.3296 177.255 39.3296H179.162V38.7671C179.162 38.3042 179.042 37.9321 178.802 37.6509C178.567 37.3696 178.157 37.229 177.571 37.229C176.985 37.229 176.566 37.3462 176.314 37.5806C176.068 37.8149 175.945 38.0991 175.945 38.4331V38.5474H173.695V38.4331C173.695 37.6362 174.059 36.9712 174.785 36.438C175.512 35.8989 176.47 35.6294 177.659 35.6294C178.854 35.6294 179.783 35.8872 180.445 36.4028C181.113 36.9185 181.447 37.7095 181.447 38.7759V42.9683C181.447 43.3433 181.479 43.7007 181.544 44.0405C181.608 44.3745 181.696 44.6616 181.808 44.9019V45.0425H179.566C179.49 44.9019 179.423 44.7202 179.364 44.4976C179.306 44.2749 179.268 44.0552 179.25 43.8384C179.057 44.1958 178.711 44.5151 178.213 44.7964C177.715 45.0718 177.091 45.2095 176.341 45.2095C175.444 45.2095 174.694 44.9692 174.091 44.4888C173.487 44.0083 173.186 43.2964 173.186 42.353ZM175.479 42.1685C175.479 42.6138 175.605 42.9683 175.857 43.2319C176.115 43.4897 176.517 43.6187 177.062 43.6187C177.636 43.6187 178.128 43.4312 178.538 43.0562C178.954 42.6812 179.162 42.2505 179.162 41.7642V40.7534H177.589C176.88 40.7534 176.35 40.8794 175.998 41.1313C175.652 41.3774 175.479 41.7231 175.479 42.1685ZM183.785 48.7163V35.8931H185.921L185.974 36.9829H186.026C186.231 36.6196 186.571 36.3179 187.046 36.0776C187.526 35.8315 188.065 35.7085 188.663 35.7085C189.835 35.7085 190.775 36.1304 191.484 36.9741C192.193 37.8179 192.548 38.9312 192.548 40.314V40.5952C192.548 41.978 192.196 43.0942 191.493 43.9438C190.79 44.7935 189.861 45.2183 188.707 45.2183C188.109 45.2183 187.582 45.1157 187.125 44.9106C186.668 44.7056 186.319 44.4243 186.079 44.0669V48.7163H183.785ZM186.079 42.0981C186.226 42.4614 186.478 42.7808 186.835 43.0562C187.192 43.3315 187.617 43.4692 188.109 43.4692C188.824 43.4692 189.352 43.2173 189.691 42.7134C190.037 42.2036 190.21 41.5298 190.21 40.6919V40.2261C190.21 39.3882 190.037 38.7173 189.691 38.2134C189.352 37.7095 188.821 37.4575 188.101 37.4575C187.597 37.4575 187.172 37.5923 186.826 37.8618C186.48 38.1313 186.231 38.4448 186.079 38.8022V42.0981ZM196.661 35.8931V38.8901H198.718C199.878 38.8901 200.763 39.1655 201.372 39.7163C201.981 40.2671 202.286 41.02 202.286 41.9751C202.286 42.9419 201.981 43.6948 201.372 44.2339C200.763 44.7729 199.878 45.0425 198.718 45.0425H194.367V35.8931H196.661ZM198.384 40.4985H196.661V43.4341H198.384C198.964 43.4341 199.377 43.3022 199.623 43.0386C199.875 42.769 200.001 42.4058 200.001 41.9487C200.001 41.5093 199.878 41.1577 199.632 40.894C199.386 40.6304 198.97 40.4985 198.384 40.4985ZM205.767 45.0425H203.323L205.907 41.228L208.192 41.3687L205.767 45.0425ZM209.432 45.0425V41.8521H207.595L207.217 41.7554C206.074 41.7554 205.195 41.4946 204.58 40.9731C203.965 40.4458 203.657 39.7368 203.657 38.8462C203.657 37.9497 203.965 37.2349 204.58 36.7017C205.195 36.1626 206.074 35.8931 207.217 35.8931H211.726V45.0425H209.432ZM207.568 40.3052H209.432V37.4136H207.568C206.977 37.4136 206.558 37.5513 206.312 37.8267C206.071 38.1021 205.951 38.4507 205.951 38.8726C205.951 39.2944 206.071 39.6401 206.312 39.9097C206.552 40.1733 206.971 40.3052 207.568 40.3052Z" fill="#04294A"/>
<rect width="21" height="21" rx="10.5" transform="matrix(-1 0 0 1 180 63.5425)" fill="#BAC6CD"/>
<rect width="15" height="15" rx="7.5" transform="matrix(-1 0 0 1 155 88.5425)" fill="#BAC6CD"/>
</svg>
