<svg width="250" height="104" viewBox="0 0 250 104" fill="none" xmlns="http://www.w3.org/2000/svg">
<path d="M18 38.5425C18 17.5557 35.0132 0.54248 56 0.54248H142C162.987 0.54248 180 17.5557 180 38.5425C180 59.5293 162.987 76.5425 142 76.5425H56C35.0132 76.5425 18 59.5293 18 38.5425Z" fill="#04294A"/>
<path d="M49.3242 45.0425V32.2456H51.6357V45.0425H49.3242ZM56.4873 45.0425L52.1455 38.8989L54.1055 37.6772L59.2998 45.0425H56.4873ZM50.4844 37.5366H52.4707L56.2588 32.2456H58.8076L53.4023 39.3647H50.4844V37.5366ZM41.7656 45.0425L46.9775 37.686L48.8232 38.8989L44.4814 45.0425H41.7656ZM50.4844 37.5366V39.3647H47.4521L42.0645 32.2456H44.6924L48.4805 37.5366H50.4844ZM59.6689 42.353C59.6689 41.3687 60.0527 40.6187 60.8203 40.103C61.5879 39.5874 62.5605 39.3296 63.7383 39.3296H65.6455V38.7671C65.6455 38.3042 65.5254 37.9321 65.2852 37.6509C65.0508 37.3696 64.6406 37.229 64.0547 37.229C63.4688 37.229 63.0498 37.3462 62.7979 37.5806C62.5518 37.8149 62.4287 38.0991 62.4287 38.4331V38.5474H60.1787V38.4331C60.1787 37.6362 60.542 36.9712 61.2686 36.438C61.9951 35.8989 62.9531 35.6294 64.1426 35.6294C65.3379 35.6294 66.2666 35.8872 66.9287 36.4028C67.5967 36.9185 67.9307 37.7095 67.9307 38.7759V42.9683C67.9307 43.3433 67.9629 43.7007 68.0273 44.0405C68.0918 44.3745 68.1797 44.6616 68.291 44.9019V45.0425H66.0498C65.9736 44.9019 65.9062 44.7202 65.8477 44.4976C65.7891 44.2749 65.751 44.0552 65.7334 43.8384C65.54 44.1958 65.1943 44.5151 64.6963 44.7964C64.1982 45.0718 63.5742 45.2095 62.8242 45.2095C61.9277 45.2095 61.1777 44.9692 60.5742 44.4888C59.9707 44.0083 59.6689 43.2964 59.6689 42.353ZM61.9629 42.1685C61.9629 42.6138 62.0889 42.9683 62.3408 43.2319C62.5986 43.4897 63 43.6187 63.5449 43.6187C64.1191 43.6187 64.6113 43.4312 65.0215 43.0562C65.4375 42.6812 65.6455 42.2505 65.6455 41.7642V40.7534H64.0723C63.3633 40.7534 62.833 40.8794 62.4814 41.1313C62.1357 41.3774 61.9629 41.7231 61.9629 42.1685ZM77.3262 47.4155V45.0425H71.3232V47.4155H69.1963V43.311H79.4619V47.4155H77.3262ZM72.9756 37.6245L72.8613 40.2261C72.8262 41.0171 72.7676 41.6646 72.6855 42.1685C72.6035 42.6665 72.4834 43.0972 72.3252 43.4604H70.0752C70.2803 43.144 70.4473 42.6987 70.5762 42.1245C70.7051 41.5444 70.79 40.7476 70.8311 39.7339L70.998 35.8931H78.1172V45.0425H75.8232V37.6245H72.9756ZM80.2881 42.353C80.2881 41.3687 80.6719 40.6187 81.4395 40.103C82.207 39.5874 83.1797 39.3296 84.3574 39.3296H86.2646V38.7671C86.2646 38.3042 86.1445 37.9321 85.9043 37.6509C85.6699 37.3696 85.2598 37.229 84.6738 37.229C84.0879 37.229 83.6689 37.3462 83.417 37.5806C83.1709 37.8149 83.0479 38.0991 83.0479 38.4331V38.5474H80.7979V38.4331C80.7979 37.6362 81.1611 36.9712 81.8877 36.438C82.6143 35.8989 83.5723 35.6294 84.7617 35.6294C85.957 35.6294 86.8857 35.8872 87.5479 36.4028C88.2158 36.9185 88.5498 37.7095 88.5498 38.7759V42.9683C88.5498 43.3433 88.582 43.7007 88.6465 44.0405C88.7109 44.3745 88.7988 44.6616 88.9102 44.9019V45.0425H86.6689C86.5928 44.9019 86.5254 44.7202 86.4668 44.4976C86.4082 44.2749 86.3701 44.0552 86.3525 43.8384C86.1592 44.1958 85.8135 44.5151 85.3154 44.7964C84.8174 45.0718 84.1934 45.2095 83.4434 45.2095C82.5469 45.2095 81.7969 44.9692 81.1934 44.4888C80.5898 44.0083 80.2881 43.2964 80.2881 42.353ZM82.582 42.1685C82.582 42.6138 82.708 42.9683 82.96 43.2319C83.2178 43.4897 83.6191 43.6187 84.1641 43.6187C84.7383 43.6187 85.2305 43.4312 85.6406 43.0562C86.0566 42.6812 86.2646 42.2505 86.2646 41.7642V40.7534H84.6914C83.9824 40.7534 83.4521 40.8794 83.1006 41.1313C82.7549 41.3774 82.582 41.7231 82.582 42.1685ZM90.8877 35.8931H93.1816V39.5054H96.6445V35.8931H98.9385V45.0425H96.6445V41.2368H93.1816V45.0425H90.8877V35.8931ZM116.13 45.0425H113.766V36.772C113.766 36.5728 113.769 36.353 113.774 36.1128C113.78 35.8726 113.786 35.6558 113.792 35.4624H113.722C113.64 35.6382 113.552 35.8198 113.458 36.0073C113.364 36.189 113.259 36.3853 113.142 36.5962L108.36 45.0425H105.803V32.2456H108.158V40.5249C108.158 40.7183 108.155 40.938 108.149 41.1841C108.149 41.4243 108.146 41.6411 108.141 41.8345H108.211C108.281 41.6704 108.366 41.4917 108.466 41.2983C108.571 41.0991 108.68 40.897 108.791 40.6919L113.572 32.2456H116.13V45.0425ZM118.661 35.8931H124.989V37.6245H120.955V45.0425H118.661V35.8931ZM125.921 40.604V40.3228C125.921 38.9048 126.343 37.7681 127.187 36.9126C128.036 36.0571 129.149 35.6294 130.526 35.6294C131.903 35.6294 133.014 36.0571 133.857 36.9126C134.701 37.7681 135.123 38.9048 135.123 40.3228V40.604C135.123 42.022 134.701 43.1587 133.857 44.0142C133.014 44.8696 131.903 45.2974 130.526 45.2974C129.149 45.2974 128.036 44.8696 127.187 44.0142C126.343 43.1587 125.921 42.022 125.921 40.604ZM128.259 40.2261V40.6919C128.259 41.5708 128.452 42.2651 128.839 42.7749C129.226 43.2847 129.788 43.5396 130.526 43.5396C131.259 43.5396 131.818 43.2847 132.205 42.7749C132.592 42.2651 132.785 41.5708 132.785 40.6919V40.2261C132.785 39.353 132.589 38.6616 132.196 38.1519C131.804 37.6421 131.247 37.3872 130.526 37.3872C129.8 37.3872 129.24 37.6421 128.848 38.1519C128.455 38.6616 128.259 39.353 128.259 40.2261ZM136.942 48.7163V35.8931H139.078L139.131 36.9829H139.184C139.389 36.6196 139.729 36.3179 140.203 36.0776C140.684 35.8315 141.223 35.7085 141.82 35.7085C142.992 35.7085 143.933 36.1304 144.642 36.9741C145.351 37.8179 145.705 38.9312 145.705 40.314V40.5952C145.705 41.978 145.354 43.0942 144.65 43.9438C143.947 44.7935 143.019 45.2183 141.864 45.2183C141.267 45.2183 140.739 45.1157 140.282 44.9106C139.825 44.7056 139.477 44.4243 139.236 44.0669V48.7163H136.942ZM139.236 42.0981C139.383 42.4614 139.635 42.7808 139.992 43.0562C140.35 43.3315 140.774 43.4692 141.267 43.4692C141.981 43.4692 142.509 43.2173 142.849 42.7134C143.194 42.2036 143.367 41.5298 143.367 40.6919V40.2261C143.367 39.3882 143.194 38.7173 142.849 38.2134C142.509 37.7095 141.979 37.4575 141.258 37.4575C140.754 37.4575 140.329 37.5923 139.983 37.8618C139.638 38.1313 139.389 38.4448 139.236 38.8022V42.0981ZM149.818 35.8931V38.8901H151.875C153.035 38.8901 153.92 39.1655 154.529 39.7163C155.139 40.2671 155.443 41.02 155.443 41.9751C155.443 42.9419 155.139 43.6948 154.529 44.2339C153.92 44.7729 153.035 45.0425 151.875 45.0425H147.524V35.8931H149.818ZM151.541 40.4985H149.818V43.4341H151.541C152.121 43.4341 152.534 43.3022 152.78 43.0386C153.032 42.769 153.158 42.4058 153.158 41.9487C153.158 41.5093 153.035 41.1577 152.789 40.894C152.543 40.6304 152.127 40.4985 151.541 40.4985Z" fill="#F3F8F7"/>
<rect x="63" y="67.5425" width="21" height="21" rx="10.5" fill="#04294A"/>
<rect x="84" y="88.5425" width="15" height="15" rx="7.5" fill="#04294A"/>
</svg>
