<svg width="19" height="18" viewBox="0 0 19 18" fill="none" xmlns="http://www.w3.org/2000/svg">
<path d="M10.9481 2.93192L11.7028 4.41068C11.7157 4.43605 11.7287 4.46147 11.7416 4.4869C11.9048 4.80813 12.0691 5.13139 12.3157 5.39392C12.5312 5.62324 12.788 5.80983 13.0727 5.94388C13.3986 6.09734 13.7568 6.15367 14.1127 6.20964C14.1409 6.21407 14.1691 6.21849 14.1972 6.22297L15.8368 6.48373C16.606 6.60606 17.1141 6.68789 17.4779 6.78033C17.7703 6.85463 17.8588 6.91132 17.8705 6.91888C17.9663 7.02465 18.0123 7.16635 17.997 7.30823C17.992 7.32124 17.9537 7.41913 17.7608 7.6511C17.5208 7.93972 17.1578 8.30458 16.6075 8.85567L15.4343 10.0304C15.4142 10.0505 15.394 10.0706 15.3738 10.0908C15.1187 10.3453 14.862 10.6014 14.6886 10.9171C14.5371 11.1929 14.439 11.4948 14.3994 11.807C14.3542 12.1644 14.4113 12.5224 14.4681 12.8783C14.4726 12.9064 14.4771 12.9346 14.4815 12.9627L14.7402 14.6026C14.8615 15.372 14.9407 15.8805 14.9652 16.2551C14.9849 16.5561 14.9583 16.6578 14.9548 16.6713C14.8838 16.7951 14.7632 16.8826 14.6236 16.9119C14.6097 16.9111 14.5048 16.905 14.2245 16.7932C13.8758 16.6542 13.4167 16.4217 12.7225 16.0686L11.2428 15.3158C11.2174 15.3029 11.192 15.2899 11.1666 15.2769C10.8457 15.113 10.5228 14.948 10.169 14.8806C9.85985 14.8217 9.54241 14.8217 9.23331 14.8806C8.87943 14.948 8.55654 15.113 8.23567 15.2769C8.21027 15.2899 8.18489 15.3029 8.1595 15.3158L6.67978 16.0686C5.98559 16.4217 5.52642 16.6542 5.17776 16.7932C4.8975 16.905 4.79259 16.9111 4.77868 16.9119C4.63901 16.8826 4.51848 16.7951 4.44749 16.6713C4.44393 16.6578 4.41735 16.5561 4.43705 16.2551C4.46155 15.8805 4.54074 15.372 4.66209 14.6026L4.92075 12.9627C4.92519 12.9346 4.92968 12.9064 4.93417 12.8782C4.99094 12.5224 5.04806 12.1644 5.00282 11.807C4.9633 11.4948 4.86521 11.1929 4.71369 10.9171C4.54023 10.6014 4.28355 10.3453 4.02848 10.0908C4.00829 10.0706 3.9881 10.0505 3.96797 10.0304L2.79479 8.85567C2.24442 8.30458 1.88144 7.93972 1.64145 7.6511C1.44855 7.41911 1.41028 7.32123 1.40525 7.30822C1.38991 7.16635 1.43595 7.02465 1.53175 6.91888C1.54346 6.91133 1.63195 6.85464 1.92438 6.78033C2.28818 6.68789 2.7963 6.60606 3.56548 6.48373L5.20507 6.22297C5.2332 6.21849 5.26136 6.21407 5.28954 6.20964C5.64549 6.15367 6.00368 6.09734 6.32959 5.94388C6.61427 5.80983 6.87108 5.62324 7.08654 5.39392C7.33321 5.13138 7.49746 4.80813 7.66069 4.4869C7.67361 4.46147 7.68652 4.43605 7.69947 4.41068L8.45413 2.93192C8.80816 2.23819 9.043 1.78022 9.24334 1.46279C9.40437 1.20765 9.48563 1.141 9.49644 1.1322C9.62663 1.07377 9.77562 1.07377 9.90582 1.1322C9.91662 1.141 9.99789 1.20765 10.1589 1.46279C10.3593 1.78022 10.5941 2.23819 10.9481 2.93192Z" stroke="#04294A" stroke-width="2" stroke-linecap="round" stroke-linejoin="round"/>
</svg>
