<svg width="20" height="18" viewBox="0 0 20 18" fill="none" xmlns="http://www.w3.org/2000/svg">
<path d="M7.96576 2.47736C8.65572 1.12538 9.0007 0.449383 9.46515 0.230975C9.86946 0.040847 10.3375 0.040847 10.7418 0.230975C11.2062 0.449383 11.5512 1.12538 12.2412 2.47736L12.9958 3.95612C13.1992 4.35458 13.3009 4.55382 13.4469 4.70919C13.5761 4.84678 13.7302 4.95873 13.901 5.03916C14.0939 5.12998 14.3148 5.16511 14.7566 5.23538L16.3962 5.49614C17.8952 5.73455 18.6447 5.85375 18.996 6.22798C19.3017 6.55375 19.4464 6.99886 19.3905 7.44214C19.3263 7.95135 18.79 8.48834 17.7174 9.56232L16.5442 10.737C16.2281 11.0535 16.07 11.2118 15.9673 11.3986C15.8764 11.5641 15.8176 11.7453 15.7939 11.9326C15.7671 12.1441 15.8019 12.365 15.8716 12.8069L16.1303 14.4468C16.3668 15.9461 16.485 16.6958 16.2377 17.1455C16.0223 17.537 15.6437 17.8121 15.2048 17.8959C14.7007 17.9922 14.0243 17.6481 12.6714 16.9598L11.1917 16.2071C10.793 16.0042 10.5936 15.9028 10.3842 15.8629C10.1987 15.8276 10.0082 15.8276 9.82278 15.8629C9.61336 15.9028 9.41399 16.0042 9.01527 16.2071L7.53554 16.9598C6.18268 17.6481 5.50624 17.9922 5.00211 17.8959C4.56327 17.8121 4.18463 17.537 3.96929 17.1455C3.72192 16.6958 3.84016 15.9461 4.07665 14.4468L4.33531 12.8069C4.405 12.365 4.43985 12.1441 4.41308 11.9326C4.38937 11.7453 4.33051 11.5641 4.2396 11.3986C4.13695 11.2118 3.97888 11.0535 3.66276 10.737L2.48958 9.56232C1.41698 8.48834 0.880673 7.95135 0.816478 7.44214C0.760594 6.99886 0.905221 6.55375 1.21098 6.22798C1.56222 5.85375 2.31174 5.73455 3.81076 5.49614L5.45034 5.23538C5.89215 5.16511 6.11305 5.12998 6.30592 5.03916C6.47673 4.95873 6.63082 4.84678 6.76009 4.70919C6.90607 4.55382 7.00775 4.35458 7.2111 3.95612L7.96576 2.47736Z" fill="#04294A"/>
</svg>
